<?xml version="1.0" encoding="UTF-8"?>
<svg version="1.1" xmlns="http://www.w3.org/2000/svg" width="736" height="552">
<path d="M0 0 C242.88 0 485.76 0 736 0 C736 182.16 736 364.32 736 552 C493.12 552 250.24 552 0 552 C0 369.84 0 187.68 0 0 Z " fill="#FEFEFE" transform="translate(0,0)"/>
<path d="M0 0 C60.72 0 121.44 0 184 0 C184 182.16 184 364.32 184 552 C123.28 552 62.56 552 0 552 C0 369.84 0 187.68 0 0 Z " fill="#FD0000" transform="translate(552,0)"/>
<path d="M0 0 C60.72 0 121.44 0 184 0 C184 182.16 184 364.32 184 552 C123.28 552 62.56 552 0 552 C0 369.84 0 187.68 0 0 Z " fill="#FD0000" transform="translate(0,0)"/>
<path d="M0 0 C0.66 0 1.32 0 2 0 C2.50559908 1.43554025 3.0042749 2.8735202 3.5 4.3125 C3.91765625 5.51326172 3.91765625 5.51326172 4.34375 6.73828125 C5 9 5 9 5 12 C5.66 12 6.32 12 7 12 C7.99 16.455 7.99 16.455 9 21 C9.66 21 10.32 21 11 21 C14.44419134 30.41002278 14.44419134 30.41002278 14 35 C14.66 35 15.32 35 16 35 C16 36.98 16 38.96 16 41 C16.66 41 17.32 41 18 41 C18.33 42.98 18.66 44.96 19 47 C19.66 47 20.32 47 21 47 C22.57578241 52.29012667 23.84941444 57.60204011 25 63 C27.64 63 30.28 63 33 63 C33 62.34 33 61.68 33 61 C33.61875 60.9175 34.2375 60.835 34.875 60.75 C35.57625 60.5025 36.2775 60.255 37 60 C37.27972656 59.37867188 37.55945313 58.75734375 37.84765625 58.1171875 C39.32607951 55.40089798 40.82014031 54.73957705 43.5625 53.375 C46.93373179 51.85508869 46.93373179 51.85508869 49 49 C49.99 49 50.98 49 52 49 C52 48.34 52 47.68 52 47 C54.475 46.505 54.475 46.505 57 46 C57 45.34 57 44.68 57 44 C59.475 43.505 59.475 43.505 62 43 C61.67 47.95 61.34 52.9 61 58 C60.34 58 59.68 58 59 58 C58.92652344 59.4540625 58.92652344 59.4540625 58.8515625 60.9375 C58.32030015 70.69407791 57.32576089 80.32065834 56 90 C55.34 90 54.68 90 54 90 C54.01740234 90.57540527 54.03480469 91.15081055 54.05273438 91.74365234 C54.17023385 98.81180555 53.4437507 105.62764123 52.5 112.625 C52.35691406 113.72457031 52.21382812 114.82414062 52.06640625 115.95703125 C51.71660766 118.63882045 51.36104277 121.31970553 51 124 C50.34 124 49.68 124 49 124 C49 129.61 49 135.22 49 141 C48.34 141 47.68 141 47 141 C47.0309375 142.7634375 47.0309375 142.7634375 47.0625 144.5625 C47.06947261 148.47413467 46.64250343 152.14497944 46 156 C46.99 156 47.98 156 49 156 C49 155.01 49 154.02 49 153 C50.375 151.3125 50.375 151.3125 52 150 C52.66 150 53.32 150 54 150 C54.1546875 148.88625 54.1546875 148.88625 54.3125 147.75 C55.05090806 144.79636774 56.1223192 143.347101 58 141 C58.33 140.01 58.66 139.02 59 138 C59.99 138 60.98 138 62 138 C62.33 136.35 62.66 134.7 63 133 C63.99 132.67 64.98 132.34 66 132 C66 131.01 66 130.02 66 129 C66.66 129 67.32 129 68 129 C68 127.68 68 126.36 68 125 C68.66 125 69.32 125 70 125 C70 124.01 70 123.02 70 122 C72.475 121.01 72.475 121.01 75 120 C75 118.68 75 117.36 75 116 C75.66 116 76.32 116 77 116 C77 115.01 77 114.02 77 113 C77.66 113 78.32 113 79 113 C79.061875 112.443125 79.12375 111.88625 79.1875 111.3125 C80.33373872 108.05012827 82.49390197 106.31332126 85 104 C85 104.66 85 105.32 85 106 C85.66 106 86.32 106 87 106 C87 107.98 87 109.96 87 112 C87.66 112 88.32 112 89 112 C89.50559908 113.43554025 90.0042749 114.8735202 90.5 116.3125 C90.91765625 117.51326172 90.91765625 117.51326172 91.34375 118.73828125 C92 121 92 121 92 124 C92.66 124 93.32 124 94 124 C94.33 125.98 94.66 127.96 95 130 C98.63 130.66 102.26 131.32 106 132 C106 131.34 106 130.68 106 130 C109.96 129.67 113.92 129.34 118 129 C118 128.34 118 127.68 118 127 C118.66 127 119.32 127 120 127 C120 126.34 120 125.68 120 125 C124.95 124.505 124.95 124.505 130 124 C130 123.34 130 122.68 130 122 C134.29 121.34 138.58 120.68 143 120 C143 121.32 143 122.64 143 124 C142.34 124 141.68 124 141 124 C141 127.63 141 131.26 141 135 C140.34 135 139.68 135 139 135 C138.87625 136.258125 138.7525 137.51625 138.625 138.8125 C138.02638195 144.26079179 137.03573574 149.62020754 136 155 C135.34 155 134.68 155 134 155 C133.86722656 156.27617187 133.73445313 157.55234375 133.59765625 158.8671875 C133.41947335 160.53647996 133.24107686 162.20574964 133.0625 163.875 C132.97548828 164.71675781 132.88847656 165.55851563 132.79882812 166.42578125 C132.71181641 167.23144531 132.62480469 168.03710938 132.53515625 168.8671875 C132.456604 169.61081543 132.37805176 170.35444336 132.29711914 171.12060547 C132 173 132 173 131 175 C130.34 175 129.68 175 129 175 C129 178.3 129 181.6 129 185 C129.99 185 130.98 185 132 185 C132.20625 185.804375 132.4125 186.60875 132.625 187.4375 C133.305625 188.7059375 133.305625 188.7059375 134 190 C136.72859174 190.70642396 136.72859174 190.70642396 140 191 C142.71640497 191.89406854 145.33967407 192.94504317 148 194 C148 194.66 148 195.32 148 196 C148.66 196 149.32 196 150 196 C150 196.66 150 197.32 150 198 C150.99 198 151.98 198 153 198 C153 198.99 153 199.98 153 201 C148.65714286 205 148.65714286 205 146 205 C146 205.99 146 206.98 146 208 C145.34 208 144.68 208 144 208 C143.9175 208.61875 143.835 209.2375 143.75 209.875 C142.75421115 212.69640174 141.63677734 212.71927958 139 214 C137.65705519 215.65893182 136.32255312 217.32476605 135 219 C134.34 219 133.68 219 133 219 C132.6596875 220.11375 132.6596875 220.11375 132.3125 221.25 C130.72083314 224.58492105 128.91375963 225.74845847 126 228 C124.44213413 229.70955281 122.96794348 231.47583563 121.484375 233.25 C119.43812494 235.66242112 117.33313947 237.86128882 115 240 C114.34 240 113.68 240 113 240 C113 240.66 113 241.32 113 242 C112.34 242 111.68 242 111 242 C110.690625 242.61875 110.38125 243.2375 110.0625 243.875 C109.375 245.25 108.6875 246.625 108 248 C107.01 248 106.02 248 105 248 C104.731875 248.5775 104.46375 249.155 104.1875 249.75 C102.97070811 252.05550043 101.69666121 254.02056192 100 256 C99.34 256 98.68 256 98 256 C98 256.66 98 257.32 98 258 C92.52380952 263 92.52380952 263 90 263 C89.67 264.32 89.34 265.64 89 267 C88.34 267 87.68 267 87 267 C87 267.99 87 268.98 87 270 C84.67361843 272.06789473 82.23224143 273.83680332 79.6875 275.625 C79.130625 276.07875 78.57375 276.5325 78 277 C78 277.66 78 278.32 78 279 C77.01 279 76.02 279 75 279 C75 282.96 75 286.92 75 291 C75.66 291 76.32 291 77 291 C77.50615298 292.26839526 78.00469099 293.53983102 78.5 294.8125 C78.91765625 295.87404297 78.91765625 295.87404297 79.34375 296.95703125 C80 299 80 299 80 302 C80.66 302 81.32 302 82 302 C82.66 304.97 83.32 307.94 84 311 C82.35 311 80.7 311 79 311 C79 310.34 79 309.68 79 309 C77.081875 309.061875 77.081875 309.061875 75.125 309.125 C67.03720281 309.14837514 59.01529123 307.97790046 51 307 C51 306.34 51 305.68 51 305 C50.3709375 305.01160156 49.741875 305.02320313 49.09375 305.03515625 C43.61930912 305.09286873 38.41542194 304.80228473 33 304 C33 303.34 33 302.68 33 302 C29.7 302 26.4 302 23 302 C23 301.34 23 300.68 23 300 C22.32453125 300.01160156 21.6490625 300.02320313 20.953125 300.03515625 C19.61507812 300.04869141 19.61507812 300.04869141 18.25 300.0625 C17.36828125 300.07410156 16.4865625 300.08570313 15.578125 300.09765625 C13 300 13 300 9 299 C9 313.85 9 328.7 9 344 C9.66 344 10.32 344 11 344 C11 359.84 11 375.68 11 392 C5.72 392 0.44 392 -5 392 C-5 368.24 -5 344.48 -5 320 C-4.34 320 -3.68 320 -3 320 C-3 313.07 -3 306.14 -3 299 C-3.66 299.33 -4.32 299.66 -5 300 C-7.04055005 300.07065617 -9.08334257 300.08421976 -11.125 300.0625 C-12.22070312 300.05347656 -13.31640625 300.04445313 -14.4453125 300.03515625 C-15.28835938 300.02355469 -16.13140625 300.01195312 -17 300 C-17 300.66 -17 301.32 -17 302 C-20.63 302 -24.26 302 -28 302 C-28 302.66 -28 303.32 -28 304 C-49.60739583 306.38776806 -49.60739583 306.38776806 -59 306 C-59 306.66 -59 307.32 -59 308 C-64.61 308.33 -70.22 308.66 -76 309 C-76 306.69 -76 304.38 -76 302 C-75.34 302 -74.68 302 -74 302 C-73.87625 300.845 -73.7525 299.69 -73.625 298.5 C-73.27956274 295.5841031 -72.75693 293.21677445 -71.875 290.375 C-70.32204692 284.49260197 -70.65520114 277.88929155 -72 272 C-73.93557569 270.5138651 -73.93557569 270.5138651 -76 270 C-76 269.01 -76 268.02 -76 267 C-76.66 267 -77.32 267 -78 267 C-78 266.34 -78 265.68 -78 265 C-78.66 265 -79.32 265 -80 265 C-80 264.34 -80 263.68 -80 263 C-80.61875 262.896875 -81.2375 262.79375 -81.875 262.6875 C-84 262 -84 262 -86 259 C-86.99 258.67 -87.98 258.34 -89 258 C-89 257.34 -89 256.68 -89 256 C-89.99 256 -90.98 256 -92 256 C-92 255.01 -92 254.02 -92 253 C-92.66 253 -93.32 253 -94 253 C-94 252.34 -94 251.68 -94 251 C-94.99 251 -95.98 251 -97 251 C-97 250.01 -97 249.02 -97 248 C-97.99 247.67 -98.98 247.34 -100 247 C-100 246.34 -100 245.68 -100 245 C-100.61875 244.9175 -101.2375 244.835 -101.875 244.75 C-104 244 -104 244 -105.0625 242 C-105.371875 241.34 -105.68125 240.68 -106 240 C-106.99 239.67 -107.98 239.34 -109 239 C-109.66 238.01 -110.32 237.02 -111 236 C-111.99 235.67 -112.98 235.34 -114 235 C-114.69937532 233.68352881 -115.36729133 232.34977849 -116 231 C-116.66 230.67 -117.32 230.34 -118 230 C-118 229.34 -118 228.68 -118 228 C-118.8971875 227.8453125 -118.8971875 227.8453125 -119.8125 227.6875 C-122.31258286 226.90175967 -123.37535082 226.03081147 -125 224 C-125 223.34 -125 222.68 -125 222 C-125.99 221.67 -126.98 221.34 -128 221 C-128 220.34 -128 219.68 -128 219 C-128.66 219 -129.32 219 -130 219 C-130 218.34 -130 217.68 -130 217 C-130.8353125 216.6596875 -130.8353125 216.6596875 -131.6875 216.3125 C-134.66159588 214.62449964 -136.72008865 212.53323483 -139 210 C-139 209.34 -139 208.68 -139 208 C-139.639375 207.87625 -140.27875 207.7525 -140.9375 207.625 C-141.618125 207.41875 -142.29875 207.2125 -143 207 C-143.33 206.34 -143.66 205.68 -144 205 C-144.99 204.67 -145.98 204.34 -147 204 C-147.33 203.01 -147.66 202.02 -148 201 C-143.375 198 -143.375 198 -140 198 C-140 197.34 -140 196.68 -140 196 C-139.34 196 -138.68 196 -138 196 C-137.67 195.01 -137.34 194.02 -137 193 C-135.68 193 -134.36 193 -133 193 C-132.67 192.01 -132.34 191.02 -132 190 C-130.7625 188.7934375 -130.7625 188.7934375 -129.5 187.5625 C-127.01570577 185.01609841 -126.45658956 184.34623854 -126 181 C-126.30131664 178.98097434 -126.30131664 178.98097434 -126.9375 177 C-127.81271705 174.03237663 -128 172.23307152 -128 169 C-128.66 169 -129.32 169 -130 169 C-130 166.36 -130 163.72 -130 161 C-130.66 161 -131.32 161 -132 161 C-132 159.35 -132 157.7 -132 156 C-132.66 156 -133.32 156 -134 156 C-138.40774487 140.25512528 -138.40774487 140.25512528 -139 133 C-139.66 133 -140.32 133 -141 133 C-141.495 128.05 -141.495 128.05 -142 123 C-133.31992454 123.55055809 -124.65720313 124.15407786 -116 125 C-116 125.66 -116 126.32 -116 127 C-113.69 127 -111.38 127 -109 127 C-109 127.66 -109 128.32 -109 129 C-103.72 129 -98.44 129 -93 129 C-90.61170948 124.38263833 -88.49888743 119.99629144 -87 115 C-86.34 115 -85.68 115 -85 115 C-84.81824219 113.84371094 -84.81824219 113.84371094 -84.6328125 112.6640625 C-84.46523438 111.66117187 -84.29765625 110.65828125 -84.125 109.625 C-83.96257812 108.62726563 -83.80015625 107.62953125 -83.6328125 106.6015625 C-83 104 -83 104 -81 102 C-80.01 102 -79.02 102 -78 102 C-78 102.66 -78 103.32 -78 104 C-77.34 104 -76.68 104 -76 104 C-76 105.65 -76 107.3 -76 109 C-74.515 109.495 -74.515 109.495 -73 110 C-73 110.66 -73 111.32 -73 112 C-72.34 112 -71.68 112 -71 112 C-71 113.32 -71 114.64 -71 116 C-70.34 116 -69.68 116 -69 116 C-66 121.75 -66 121.75 -66 124 C-65.34 124 -64.68 124 -64 124 C-61 129.75 -61 129.75 -61 132 C-60.34 132 -59.68 132 -59 132 C-58.68546875 132.67546875 -58.3709375 133.3509375 -58.046875 134.046875 C-55.80861062 138.71217305 -53.92066047 142.51496847 -50 146 C-50 146.66 -50 147.32 -50 148 C-49.34 148 -48.68 148 -48 148 C-47.01 151.465 -47.01 151.465 -46 155 C-44.02 155.33 -42.04 155.66 -40 156 C-40.495 145.605 -40.495 145.605 -41 135 C-41.66 135 -42.32 135 -43 135 C-43.57677443 130.46595471 -44.14613797 125.93105905 -44.70898438 121.39526367 C-44.9010156 119.85595297 -45.09498513 118.31688268 -45.29101562 116.77807617 C-46.30140061 108.8367595 -47.29213304 101.02452934 -47 93 C-47.66 93 -48.32 93 -49 93 C-49.11593506 92.06615479 -49.23187012 91.13230957 -49.35131836 90.17016602 C-49.78214687 86.7164328 -50.2167865 83.2632244 -50.65405273 79.81030273 C-50.84276742 78.31375136 -51.02994619 76.81700549 -51.21557617 75.32006836 C-51.48215765 73.17248795 -51.7541961 71.0256601 -52.02734375 68.87890625 C-52.27085571 66.93866577 -52.27085571 66.93866577 -52.51928711 64.95922852 C-52.68447339 62.12066736 -52.68447339 62.12066736 -54 61 C-54.23653523 58.47403741 -54.42173692 55.96892793 -54.5625 53.4375 C-54.60568359 52.72658203 -54.64886719 52.01566406 -54.69335938 51.28320312 C-54.79971777 49.52238088 -54.90038846 47.7612168 -55 46 C-53.02 46.495 -53.02 46.495 -51 47 C-51 47.66 -51 48.32 -51 49 C-50.443125 49.226875 -49.88625 49.45375 -49.3125 49.6875 C-46.37495279 51.35475652 -44.38188562 53.61811438 -42 56 C-39.83379456 57.29519995 -39.83379456 57.29519995 -38 58 C-38 58.66 -38 59.32 -38 60 C-36.515 60.495 -36.515 60.495 -35 61 C-34.67 61.66 -34.34 62.32 -34 63 C-31.03 63 -28.06 63 -25 63 C-24.01 60.03 -23.02 57.06 -22 54 C-21.34 54 -20.68 54 -20 54 C-19.87044922 53.12601563 -19.87044922 53.12601563 -19.73828125 52.234375 C-18.6577674 45.92972535 -16.691557 40.41668908 -14.12109375 34.56640625 C-12.93662384 31.95983648 -12.93662384 31.95983648 -12 29 C-11.34 29 -10.68 29 -10 29 C-9.86722656 28.38511719 -9.73445312 27.77023438 -9.59765625 27.13671875 C-9.42105469 26.32847656 -9.24445313 25.52023438 -9.0625 24.6875 C-8.88847656 23.88699219 -8.71445312 23.08648437 -8.53515625 22.26171875 C-8 20 -8 20 -7 17 C-6.34 17 -5.68 17 -5 17 C-5 14.69 -5 12.38 -5 10 C-4.34 10 -3.68 10 -3 10 C-2.86722656 9.36191406 -2.73445312 8.72382812 -2.59765625 8.06640625 C-2.42105469 7.24011719 -2.24445313 6.41382812 -2.0625 5.5625 C-1.88847656 4.73878906 -1.71445312 3.91507812 -1.53515625 3.06640625 C-1 1 -1 1 0 0 Z " fill="#FC0000" transform="translate(369,78)"/>
<path d="M0 0 C0.99 0 1.98 0 3 0 C3 182.16 3 364.32 3 552 C2.01 552 1.02 552 0 552 C0 369.84 0 187.68 0 0 Z " fill="#DC1110" transform="translate(181,0)"/>
<path d="M0 0 C0 1.32 0 2.64 0 4 C-0.66 4 -1.32 4 -2 4 C-2 7.63 -2 11.26 -2 15 C-2.66 15 -3.32 15 -4 15 C-4.185625 16.8871875 -4.185625 16.8871875 -4.375 18.8125 C-4.97361805 24.26079179 -5.96426426 29.62020754 -7 35 C-7.66 35 -8.32 35 -9 35 C-9.13277344 36.27617187 -9.26554687 37.55234375 -9.40234375 38.8671875 C-9.58052665 40.53647996 -9.75892314 42.20574964 -9.9375 43.875 C-10.02451172 44.71675781 -10.11152344 45.55851562 -10.20117188 46.42578125 C-10.28818359 47.23144531 -10.37519531 48.03710938 -10.46484375 48.8671875 C-10.543396 49.61081543 -10.62194824 50.35444336 -10.70288086 51.12060547 C-11 53 -11 53 -12 55 C-12.66 55 -13.32 55 -14 55 C-14 58.3 -14 61.6 -14 65 C-13.01 65 -12.02 65 -11 65 C-10.79375 65.804375 -10.5875 66.60875 -10.375 67.4375 C-9.92125 68.283125 -9.4675 69.12875 -9 70 C-6.27140826 70.70642396 -6.27140826 70.70642396 -3 71 C-0.28359503 71.89406854 2.33967407 72.94504317 5 74 C5 74.66 5 75.32 5 76 C5.66 76 6.32 76 7 76 C6.67 76.66 6.34 77.32 6 78 C5.01 77.505 5.01 77.505 4 77 C4 76.34 4 75.68 4 75 C0.04 74.34 -3.92 73.68 -8 73 C-8 72.34 -8 71.68 -8 71 C-9.32 71 -10.64 71 -12 71 C-15.21050123 68.30026033 -16.72815921 66.63104474 -17.421875 62.46875 C-17.57453778 57.03395496 -16.79108994 52.50573242 -14.85546875 47.453125 C-13.81391175 44.46637707 -13.1669621 41.46631642 -12.5 38.375 C-11.71011375 34.79776646 -10.91419066 31.80435471 -9.4375 28.4375 C-7.6543452 24.17343419 -7.07451116 20.03557891 -6.4296875 15.4765625 C-6 13 -6 13 -5 12 C-4.60851239 10.48834346 -4.26027543 8.96530368 -3.9375 7.4375 C-3.76089844 6.61121094 -3.58429688 5.78492188 -3.40234375 4.93359375 C-3.20318359 3.97646484 -3.20318359 3.97646484 -3 3 C-3.680625 3.28875 -4.36125 3.5775 -5.0625 3.875 C-8 5 -8 5 -11.375 5.9375 C-15.07881136 7.02309988 -18.46553189 8.45768664 -22 10 C-23.98799818 10.70164642 -25.98698517 11.37372872 -28 12 C-28.56847656 12.18175781 -29.13695312 12.36351562 -29.72265625 12.55078125 C-32.91720103 13.18092302 -35.99781475 13.09261283 -39.25 13.0625 C-40.51328125 13.05347656 -41.7765625 13.04445312 -43.078125 13.03515625 C-44.04234375 13.02355469 -45.0065625 13.01195312 -46 13 C-45.67 12.34 -45.34 11.68 -45 11 C-42.36 11.33 -39.72 11.66 -37 12 C-37 11.34 -37 10.68 -37 10 C-31.06 9.505 -31.06 9.505 -25 9 C-25 8.34 -25 7.68 -25 7 C-24.34 7 -23.68 7 -23 7 C-23 6.34 -23 5.68 -23 5 C-19.7 4.67 -16.4 4.34 -13 4 C-13 3.34 -13 2.68 -13 2 C-11.20873548 1.66451233 -9.41697413 1.33167645 -7.625 1 C-6.62726563 0.814375 -5.62953125 0.62875 -4.6015625 0.4375 C-2 0 -2 0 0 0 Z " fill="#C22728" transform="translate(512,198)"/>
<path d="M0 0 C1.67542976 0.28604898 3.34385343 0.61781233 5 1 C3.68 1.33 2.36 1.66 1 2 C1 16.85 1 31.7 1 47 C1.66 47 2.32 47 3 47 C3 62.84 3 78.68 3 95 C-2.28 95 -7.56 95 -13 95 C-13 71.24 -13 47.48 -13 23 C-12.34 23 -11.68 23 -11 23 C-11 16.07 -11 9.14 -11 2 C-10.34 2.33 -9.68 2.66 -9 3 C-8.9728955 6.04172719 -8.95311036 9.08320997 -8.9375 12.125 C-8.92912109 12.9809375 -8.92074219 13.836875 -8.91210938 14.71875 C-8.90888672 15.55664062 -8.90566406 16.39453125 -8.90234375 17.2578125 C-8.89710693 18.0223877 -8.89187012 18.78696289 -8.88647461 19.57470703 C-9 22 -9 22 -9.48852539 24.69067383 C-10.15962239 29.03278351 -10.21413292 33.30372651 -10.28125 37.69140625 C-10.29965942 38.63193344 -10.31806885 39.57246063 -10.33703613 40.54148865 C-10.39551106 43.54843147 -10.44827489 46.55543406 -10.5 49.5625 C-10.76203755 64.39211093 -11.2095897 79.18843991 -12 94 C-7.71 94 -3.42 94 1 94 C0.97272324 92.83710953 0.94544647 91.67421906 0.91734314 90.47608948 C0.66154565 79.5424207 0.41107532 68.60864129 0.16588497 57.67472935 C0.03964289 52.05286194 -0.08850731 46.43105126 -0.22094727 40.80932617 C-0.34857556 35.38891264 -0.47128444 29.96840845 -0.59051323 24.54780388 C-0.6369881 22.47481174 -0.68526671 20.40185926 -0.73533821 18.32895088 C-0.8049101 15.43626154 -0.86819512 12.5435004 -0.92993164 9.65063477 C-0.95222839 8.78461136 -0.97452515 7.91858795 -0.99749756 7.02632141 C-1.03709088 5.01793767 -1.02438743 3.00862593 -1 1 C-0.67 0.67 -0.34 0.34 0 0 Z " fill="#C63335" transform="translate(377,375)"/>
<path d="M0 0 C3.53800031 0.5542361 4.77638067 1.58598616 6.875 4.4375 C9.62700332 7.85665564 11.74372984 8.79714104 16 10 C18.375 12 18.375 12 20 14 C20 14.66 20 15.32 20 16 C20.66 16 21.32 16 22 16 C23.50894082 19.01788164 23.14735712 22.13016166 23.125 25.4375 C23.11883667 26.51741211 23.11883667 26.51741211 23.11254883 27.61914062 C23.01883793 36.65569216 22.63588205 44.62166311 19 53 C19.99 52.505 19.99 52.505 21 52 C22.65424586 51.85950588 24.31338468 51.77430036 25.97265625 51.71875 C27.44508789 51.66267578 27.44508789 51.66267578 28.94726562 51.60546875 C31.02799032 51.53502415 33.10871952 51.46471215 35.18945312 51.39453125 C36.65995117 51.33845703 36.65995117 51.33845703 38.16015625 51.28125 C39.06386963 51.25095703 39.96758301 51.22066406 40.89868164 51.18945312 C42.98610288 51.22748234 42.98610288 51.22748234 44 50 C45.94761428 49.70043936 47.90446213 49.46048972 49.86328125 49.24609375 C51.06017578 49.11396484 52.25707031 48.98183594 53.49023438 48.84570312 C54.75158203 48.71099609 56.01292969 48.57628906 57.3125 48.4375 C58.56224609 48.29892578 59.81199219 48.16035156 61.09960938 48.01757812 C70.4382697 47 70.4382697 47 75 47 C75 47.66 75 48.32 75 49 C71.37 49 67.74 49 64 49 C64 49.66 64 50.32 64 51 C42.39260417 53.38776806 42.39260417 53.38776806 33 53 C33 53.66 33 54.32 33 55 C24.585 55.495 24.585 55.495 16 56 C16 53.69 16 51.38 16 49 C16.66 49 17.32 49 18 49 C18.12375 47.845 18.2475 46.69 18.375 45.5 C18.72043726 42.5841031 19.24307 40.21677445 20.125 37.375 C21.67795308 31.49260197 21.34479886 24.88929155 20 19 C18.06442431 17.5138651 18.06442431 17.5138651 16 17 C16 16.01 16 15.02 16 14 C15.34 14 14.68 14 14 14 C14 13.34 14 12.68 14 12 C13.34 12 12.68 12 12 12 C12 11.34 12 10.68 12 10 C11.071875 9.8453125 11.071875 9.8453125 10.125 9.6875 C8 9 8 9 6 6 C5.01 5.67 4.02 5.34 3 5 C3 4.34 3 3.68 3 3 C2.01 3 1.02 3 0 3 C0 2.01 0 1.02 0 0 Z " fill="#C81D21" transform="translate(277,331)"/>
<path d="M0 0 C1.32 0.33 2.64 0.66 4 1 C4 1.66 4 2.32 4 3 C4.8353125 3.3403125 4.8353125 3.3403125 5.6875 3.6875 C8.62504721 5.35475652 10.61811438 7.61811438 13 10 C15.16620544 11.29519995 15.16620544 11.29519995 17 12 C17 12.66 17 13.32 17 14 C17.99 14.33 18.98 14.66 20 15 C20.33 15.66 20.66 16.32 21 17 C22.45742463 17.08096803 23.91612807 17.13917774 25.375 17.1875 C26.59316406 17.23970703 26.59316406 17.23970703 27.8359375 17.29296875 C28.55007813 17.19628906 29.26421875 17.09960938 30 17 C30.66 16.01 31.32 15.02 32 14 C31.125 18.875 31.125 18.875 30 20 C27.98035801 20.07244053 25.95832876 20.08377188 23.9375 20.0625 C22.83277344 20.05347656 21.72804688 20.04445312 20.58984375 20.03515625 C19.73519531 20.02355469 18.88054687 20.01195312 18 20 C17.34 18.68 16.68 17.36 16 16 C15.34 16 14.68 16 14 16 C14 15.34 14 14.68 14 14 C13.01 13.67 12.02 13.34 11 13 C11 12.01 11 11.02 11 10 C8.525 9.01 8.525 9.01 6 8 C6.33 17.9 6.66 27.8 7 38 C7.66 38 8.32 38 9 38 C9.33 46.58 9.66 55.16 10 64 C9.67 64 9.34 64 9 64 C8.1679418 58.27959989 7.87963336 52.77759884 8 47 C7.34 47 6.68 47 6 47 C5.82609741 45.59923218 5.82609741 45.59923218 5.64868164 44.17016602 C5.21785313 40.7164328 4.7832135 37.2632244 4.34594727 33.81030273 C4.15723258 32.31375136 3.97005381 30.81700549 3.78442383 29.32006836 C3.51784235 27.17248795 3.2458039 25.0256601 2.97265625 22.87890625 C2.81031494 21.5854126 2.64797363 20.29191895 2.48071289 18.95922852 C2.31552661 16.12066736 2.31552661 16.12066736 1 15 C0.76346477 12.47403741 0.57826308 9.96892793 0.4375 7.4375 C0.39431641 6.72658203 0.35113281 6.01566406 0.30664062 5.28320312 C0.20028223 3.52238088 0.09961154 1.7612168 0 0 Z " fill="#CB2425" transform="translate(314,124)"/>
<path d="M0 0 C-0.33 4.95 -0.66 9.9 -1 15 C-1.66 15 -2.32 15 -3 15 C-3 11.37 -3 7.74 -3 4 C-3.66 4 -4.32 4 -5 4 C-5.33 4.99 -5.66 5.98 -6 7 C-7.33333333 7.33333333 -8.66666667 7.66666667 -10 8 C-10.33 8.99 -10.66 9.98 -11 11 C-11.78375 11.103125 -12.5675 11.20625 -13.375 11.3125 C-16.33045181 11.77595022 -16.33045181 11.77595022 -18 15 C-18.825 15.12375 -19.65 15.2475 -20.5 15.375 C-21.325 15.58125 -22.15 15.7875 -23 16 C-24.31068333 18.44288628 -24.31068333 18.44288628 -25 21 C-26.73219928 22.73219928 -29.02026808 22.21291761 -31.375 22.25 C-32.35210937 22.27578125 -33.32921875 22.3015625 -34.3359375 22.328125 C-37 22 -37 22 -38.71484375 20.7421875 C-43.33216944 14.48283413 -44.48555661 8.64751665 -44 1 C-43.67 1.99 -43.34 2.98 -43 4 C-42.34 4 -41.68 4 -41 4 C-39.42421759 9.29012667 -38.15058556 14.60204011 -37 20 C-34.36 20 -31.72 20 -29 20 C-29 19.34 -29 18.68 -29 18 C-28.071875 17.87625 -28.071875 17.87625 -27.125 17.75 C-26.42375 17.5025 -25.7225 17.255 -25 17 C-24.72027344 16.37867188 -24.44054687 15.75734375 -24.15234375 15.1171875 C-22.67392049 12.40089798 -21.17985969 11.73957705 -18.4375 10.375 C-15.06626821 8.85508869 -15.06626821 8.85508869 -13 6 C-12.01 6 -11.02 6 -10 6 C-10 5.34 -10 4.68 -10 4 C-8.35 3.67 -6.7 3.34 -5 3 C-5 2.34 -5 1.68 -5 1 C-3 0 -3 0 0 0 Z " fill="#CA1E21" transform="translate(431,121)"/>
<path d="M0 0 C0 0.66 0 1.32 0 2 C-0.99 2 -1.98 2 -3 2 C-2.67 3.98 -2.34 5.96 -2 8 C-0.68 8.33 0.64 8.66 2 9 C2 9.66 2 10.32 2 11 C2.99 11.33 3.98 11.66 5 12 C6.02408568 12.9753197 7.01834406 13.98198643 8 15 C9.0578875 15.85987266 10.12076931 16.71362276 11.1875 17.5625 C12.115625 18.366875 13.04375 19.17125 14 20 C14 20.66 14 21.32 14 22 C14.61875 22.268125 15.2375 22.53625 15.875 22.8125 C18 24 18 24 20 27 C20.845625 27.28875 21.69125 27.5775 22.5625 27.875 C23.366875 28.24625 24.17125 28.6175 25 29 C25.8125 31.625 25.8125 31.625 26 34 C26.9075 34.103125 27.815 34.20625 28.75 34.3125 C32.03071844 35.00649813 33.60889095 35.70085668 36 38 C36 38.66 36 39.32 36 40 C36.66 40 37.32 40 38 40 C38 40.99 38 41.98 38 43 C38.66 43 39.32 43 40 43 C40.66 44.65 41.32 46.3 42 48 C42.66 48 43.32 48 44 48 C44 48.99 44 49.98 44 51 C45.32 51.66 46.64 52.32 48 53 C48 53.66 48 54.32 48 55 C47.34 55 46.68 55 46 55 C46 54.34 46 53.68 46 53 C45.01 53 44.02 53 43 53 C43 52.01 43 51.02 43 50 C42.01 49.67 41.02 49.34 40 49 C40 48.34 40 47.68 40 47 C39.38125 46.9175 38.7625 46.835 38.125 46.75 C36 46 36 46 34.9375 44 C34.628125 43.34 34.31875 42.68 34 42 C33.01 41.67 32.02 41.34 31 41 C30.34 40.01 29.68 39.02 29 38 C28.01 37.67 27.02 37.34 26 37 C25.30062468 35.68352881 24.63270867 34.34977849 24 33 C23.34 32.67 22.68 32.34 22 32 C22 31.34 22 30.68 22 30 C21.401875 29.896875 20.80375 29.79375 20.1875 29.6875 C17.68741714 28.90175967 16.62464918 28.03081147 15 26 C15 25.34 15 24.68 15 24 C14.01 23.67 13.02 23.34 12 23 C12 22.34 12 21.68 12 21 C11.34 21 10.68 21 10 21 C10 20.34 10 19.68 10 19 C9.443125 18.773125 8.88625 18.54625 8.3125 18.3125 C5.33840412 16.62449964 3.27991135 14.53323483 1 12 C1 11.34 1 10.68 1 10 C0.360625 9.87625 -0.27875 9.7525 -0.9375 9.625 C-1.618125 9.41875 -2.29875 9.2125 -3 9 C-3.33 8.34 -3.66 7.68 -4 7 C-4.99 6.67 -5.98 6.34 -7 6 C-7.33 5.01 -7.66 4.02 -8 3 C-3.375 0 -3.375 0 0 0 Z " fill="#C52C2D" transform="translate(229,276)"/>
<path d="M0 0 C0.33 0 0.66 0 1 0 C1.81892391 30.33938865 2.13727317 60.64995739 2 91 C-2.29 91 -6.58 91 -11 91 C-11.06993539 76.05422434 -10.86207631 61.12861543 -10.5 46.1875 C-10.45160016 44.11523957 -10.40342212 42.04297394 -10.35546875 39.97070312 C-10.23952135 34.98040552 -10.12062425 29.99018665 -10 25 C-9.67 25 -9.34 25 -9 25 C-8.97492258 31.22151408 -8.95696516 37.44299751 -8.94506836 43.66455078 C-8.94009875 45.77262892 -8.93332074 47.88070373 -8.92456055 49.98876953 C-8.87179013 63.03237432 -9.08777084 75.98607909 -10 89 C-6.7 89 -3.4 89 0 89 C0 59.63 0 30.26 0 0 Z " fill="#E30B0E" transform="translate(376,378)"/>
<path d="M0 0 C8.68007546 0.55055809 17.34279687 1.15407786 26 2 C26 2.66 26 3.32 26 4 C28.31 4 30.62 4 33 4 C33 4.66 33 5.32 33 6 C31.9171875 5.85691406 30.834375 5.71382812 29.71875 5.56640625 C24.32445611 4.89211951 18.9144812 4.41712924 13.5 3.9375 C11.98019531 3.80118164 11.98019531 3.80118164 10.4296875 3.66210938 C7.95323335 3.44016301 5.476673 3.21948844 3 3 C3.33 3.66 3.66 4.32 4 5 C4.04022391 7.3329866 4.04320247 9.66706666 4 12 C4.66 12 5.32 12 6 12 C6.9632426 15.62371323 7.919671 19.24919318 8.875 22.875 C9.14441406 23.88820312 9.41382813 24.90140625 9.69140625 25.9453125 C11.3515764 32.26205748 12.80544401 38.57859393 14 45 C13.01 45.495 13.01 45.495 12 46 C12 43.36 12 40.72 12 38 C11.34 38 10.68 38 10 38 C10 36.35 10 34.7 10 33 C9.34 33 8.68 33 8 33 C3.59225513 17.25512528 3.59225513 17.25512528 3 10 C2.34 10 1.68 10 1 10 C0.67 6.7 0.34 3.4 0 0 Z " fill="#C72C30" transform="translate(227,201)"/>
<path d="M0 0 C0.33 0 0.66 0 1 0 C1.14573341 6.34257152 0.67908825 12.20018611 -0.4375 18.4375 C-0.57220703 19.23865234 -0.70691406 20.03980469 -0.84570312 20.86523438 C-1.85518219 26.71036438 -1.85518219 26.71036438 -3 29 C-3.66 29 -4.32 29 -5 29 C-5 32.3 -5 35.6 -5 39 C-4.01 39 -3.02 39 -2 39 C-1.690625 40.2065625 -1.690625 40.2065625 -1.375 41.4375 C-0.92125 42.283125 -0.4675 43.12875 0 44 C2.72859174 44.70642396 2.72859174 44.70642396 6 45 C8.71640497 45.89406854 11.33967407 46.94504317 14 48 C14 48.66 14 49.32 14 50 C14.66 50 15.32 50 16 50 C15.67 50.66 15.34 51.32 15 52 C14.34 51.67 13.68 51.34 13 51 C13 50.34 13 49.68 13 49 C9.04 48.34 5.08 47.68 1 47 C1 46.34 1 45.68 1 45 C-0.32 45 -1.64 45 -3 45 C-6.21050123 42.30026033 -7.72815921 40.63104474 -8.421875 36.46875 C-8.57449464 31.03549066 -7.78937437 26.50962394 -5.859375 21.45703125 C-4.45195144 17.43307936 -3.6455307 13.27508274 -2.74609375 9.11328125 C-2.0001428 6.00059588 -1.05509652 3.02038361 0 0 Z " fill="#D11414" transform="translate(503,224)"/>
<path d="M0 0 C0.99 0 1.98 0 3 0 C3 0.99 3 1.98 3 3 C-1.34285714 7 -1.34285714 7 -4 7 C-4 7.99 -4 8.98 -4 10 C-4.66 10 -5.32 10 -6 10 C-6.0825 10.61875 -6.165 11.2375 -6.25 11.875 C-7.24578885 14.69640174 -8.36322266 14.71927958 -11 16 C-12.34294481 17.65893182 -13.67744688 19.32476605 -15 21 C-15.66 21 -16.32 21 -17 21 C-17.226875 21.7425 -17.45375 22.485 -17.6875 23.25 C-19.27916686 26.58492105 -21.08624037 27.74845847 -24 30 C-25.55786587 31.70955281 -27.03205652 33.47583563 -28.515625 35.25 C-30.56187506 37.66242112 -32.66686053 39.86128882 -35 42 C-35.66 42 -36.32 42 -37 42 C-37 42.66 -37 43.32 -37 44 C-37.66 44 -38.32 44 -39 44 C-39 42.68 -39 41.36 -39 40 C-38.01 40 -37.02 40 -36 40 C-35.896875 39.401875 -35.79375 38.80375 -35.6875 38.1875 C-34.90175967 35.68741714 -34.03081147 34.62464918 -32 33 C-31.34 33 -30.68 33 -30 33 C-30 32.34 -30 31.68 -30 31 C-28.125 28.875 -28.125 28.875 -26 27 C-25.34 27 -24.68 27 -24 27 C-23.87625 26.071875 -23.87625 26.071875 -23.75 25.125 C-23 23 -23 23 -21 21.9375 C-20.01 21.4734375 -20.01 21.4734375 -19 21 C-18.67 20.01 -18.34 19.02 -18 18 C-17.38125 17.896875 -16.7625 17.79375 -16.125 17.6875 C-13.62535475 17.14223648 -13.62535475 17.14223648 -12.25 13.9375 C-11.8375 12.968125 -11.425 11.99875 -11 11 C-10.01 11 -9.02 11 -8 11 C-7.773125 10.236875 -7.54625 9.47375 -7.3125 8.6875 C-5.71982185 5.42630188 -4.09831569 4.74776782 -1 3 C-0.67 2.01 -0.34 1.02 0 0 Z " fill="#C12C2B" transform="translate(519,276)"/>
<path d="M0 0 C0.99 0 1.98 0 3 0 C3 0.66 3 1.32 3 2 C3.66 2 4.32 2 5 2 C5 3.65 5 5.3 5 7 C5.99 7.33 6.98 7.66 8 8 C8 8.66 8 9.32 8 10 C8.66 10 9.32 10 10 10 C10 11.32 10 12.64 10 14 C10.66 14 11.32 14 12 14 C15 19.75 15 19.75 15 22 C15.66 22 16.32 22 17 22 C17.495 24.475 17.495 24.475 18 27 C14.67140292 23.95124073 12.49564707 20.78089042 10.25 16.875 C9.63640625 15.82054687 9.0228125 14.76609375 8.390625 13.6796875 C7 11 7 11 7 9 C6.01 8.67 5.02 8.34 4 8 C3.67 7.34 3.34 6.68 3 6 C2.34 6 1.68 6 1 6 C0.67 6.99 0.34 7.98 0 9 C-0.66 9 -1.32 9 -2 9 C-2.103125 9.680625 -2.20625 10.36125 -2.3125 11.0625 C-2.98040932 13.91629435 -3.97627139 16.42557197 -5.17578125 19.09375 C-6.06067904 21.14033826 -6.81315097 23.21280121 -7.5625 25.3125 C-9 29 -9 29 -11 31 C-13.75720558 31.01691537 -16.26716418 30.47716181 -19 30 C-19.33 29.67 -19.66 29.34 -20 29 C-22.32817964 28.63239269 -24.6618385 28.29758419 -27 28 C-27 27.67 -27 27.34 -27 27 C-22.05 27 -17.1 27 -12 27 C-9.61170948 22.38263833 -7.49888743 17.99629144 -6 13 C-5.34 13 -4.68 13 -4 13 C-3.87882812 12.22914063 -3.75765625 11.45828125 -3.6328125 10.6640625 C-3.46523438 9.66117188 -3.29765625 8.65828125 -3.125 7.625 C-2.96257812 6.62726563 -2.80015625 5.62953125 -2.6328125 4.6015625 C-2 2 -2 2 0 0 Z " fill="#C32C2C" transform="translate(288,180)"/>
<path d="M0 0 C6.94088889 -0.26469492 13.61986473 0.20914801 20.50048828 1.14794922 C24.38918092 1.67726643 28.2721145 2.13890057 32.1796875 2.5078125 C33.04400391 2.59047363 33.90832031 2.67313477 34.79882812 2.75830078 C36.49220925 2.91717562 38.1862305 3.06939404 39.88085938 3.21435547 C45.779224 3.779224 45.779224 3.779224 48 6 C50.20250992 6.46006346 50.20250992 6.46006346 52.625 6.625 C53.44226563 6.69976562 54.25953125 6.77453125 55.1015625 6.8515625 C55.72804688 6.90054687 56.35453125 6.94953125 57 7 C57 7.66 57 8.32 57 9 C59.97 9 62.94 9 66 9 C66 9.33 66 9.66 66 10 C56.55426495 10.30470113 47.3578564 9.14169926 38 8 C38 7.34 38 6.68 38 6 C37.05640625 6.01740234 37.05640625 6.01740234 36.09375 6.03515625 C30.61930912 6.09286873 25.41542194 5.80228473 20 5 C20 4.34 20 3.68 20 3 C16.7 3 13.4 3 10 3 C10 2.34 10 1.68 10 1 C6.7 1 3.4 1 0 1 C0 0.67 0 0.34 0 0 Z " fill="#C72022" transform="translate(382,377)"/>
<path d="M0 0 C0.66 0 1.32 0 2 0 C3.04559253 6.58723293 2.83292414 11.59233959 1 18 C3.94091587 17.81584568 3.94091587 17.81584568 7 17 C8.43637698 15.04836882 8.43637698 15.04836882 9 13 C10.32 13.33 11.64 13.66 13 14 C12.01 14 11.02 14 10 14 C9.8453125 15.1446875 9.8453125 15.1446875 9.6875 16.3125 C8.93200845 19.26578515 8.13007477 19.95867834 6 22 C5.28552357 24.10332891 5.28552357 24.10332891 5 26 C4.34 26 3.68 26 3 26 C2.67 26.99 2.34 27.98 2 29 C1.34 29 0.68 29 0 29 C0 29.99 0 30.98 0 32 C-0.99 32 -1.98 32 -3 32 C-2.67 27.05 -2.34 22.1 -2 17 C-1.34 17 -0.68 17 0 17 C0 11.39 0 5.78 0 0 Z " fill="#FCDAD2" transform="translate(418,202)"/>
<path d="M0 0 C6.93 0.495 6.93 0.495 14 1 C14 1.66 14 2.32 14 3 C17.3 3 20.6 3 24 3 C24 3.66 24 4.32 24 5 C20.37 5 16.74 5 13 5 C13 4.01 13 3.02 13 2 C11.52031676 2.14049518 10.04125484 2.28754826 8.5625 2.4375 C7.73878906 2.51871094 6.91507812 2.59992188 6.06640625 2.68359375 C4.01337975 2.78930815 4.01337975 2.78930815 3 4 C2.8396444 7.02807044 2.74039552 10.03585454 2.68359375 13.06640625 C2.66281265 13.97502914 2.64203156 14.88365204 2.62062073 15.81980896 C2.55502328 18.73395946 2.4961932 21.64820304 2.4375 24.5625 C2.39432446 26.53321291 2.35071049 28.50391626 2.30664062 30.47460938 C2.19933157 35.31630988 2.09809325 40.15810437 2 45 C1.34 45 0.68 45 0 45 C0 30.15 0 15.3 0 0 Z " fill="#FDDAD6" transform="translate(378,377)"/>
<path d="M0 0 C0.66 0.33 1.32 0.66 2 1 C1.38125 1.886875 0.7625 2.77375 0.125 3.6875 C-2.02891564 6.80172883 -2.02891564 6.80172883 -3.0625 9.75 C-4 12 -4 12 -7 14 C-7.515625 14.86625 -8.03125 15.7325 -8.5625 16.625 C-9.036875 17.40875 -9.51125 18.1925 -10 19 C-10.66 19 -11.32 19 -12 19 C-12.66 21.31 -13.32 23.62 -14 26 C-15.32 26.33 -16.64 26.66 -18 27 C-18.0825 27.70125 -18.165 28.4025 -18.25 29.125 C-19.17027725 32.65272947 -20.88126977 35.06111614 -23 38 C-24.32 37.34 -25.64 36.68 -27 36 C-26.01 36 -25.02 36 -24 36 C-24 35.01 -24 34.02 -24 33 C-22.625 31.3125 -22.625 31.3125 -21 30 C-20.34 30 -19.68 30 -19 30 C-18.8453125 28.88625 -18.8453125 28.88625 -18.6875 27.75 C-17.94909194 24.79636774 -16.8776808 23.347101 -15 21 C-14.67 20.01 -14.34 19.02 -14 18 C-13.01 18 -12.02 18 -11 18 C-10.67 16.35 -10.34 14.7 -10 13 C-9.01 12.67 -8.02 12.34 -7 12 C-7 11.01 -7 10.02 -7 9 C-6.34 9 -5.68 9 -5 9 C-5 7.68 -5 6.36 -5 5 C-4.34 5 -3.68 5 -3 5 C-3 4.01 -3 3.02 -3 2 C-2.01 1.34 -1.02 0.68 0 0 Z " fill="#C2292B" transform="translate(442,198)"/>
<path d="M0 0 C0 6.93 0 13.86 0 21 C-0.66 21 -1.32 21 -2 21 C-2 14.73 -2 8.46 -2 2 C-4.31 2.33 -6.62 2.66 -9 3 C-9.33 3.99 -9.66 4.98 -10 6 C-10.33 5.67 -10.66 5.34 -11 5 C-13.35313555 4.92728259 -15.70833668 4.91629132 -18.0625 4.9375 C-19.35285156 4.94652344 -20.64320313 4.95554687 -21.97265625 4.96484375 C-22.97167969 4.97644531 -23.97070312 4.98804688 -25 5 C-25 4.34 -25 3.68 -25 3 C-21.37 3 -17.74 3 -14 3 C-14 2.34 -14 1.68 -14 1 C-12.04175306 0.83232136 -10.08339945 0.66588795 -8.125 0.5 C-6.48917969 0.36078125 -6.48917969 0.36078125 -4.8203125 0.21875 C-3.21670436 0.09437042 -1.60842449 0 0 0 Z " fill="#FDCECA" transform="translate(366,377)"/>
<path d="M0 0 C-0.33 4.95 -0.66 9.9 -1 15 C-1.66 15 -2.32 15 -3 15 C-3 11.37 -3 7.74 -3 4 C-3.66 4 -4.32 4 -5 4 C-5.33 4.99 -5.66 5.98 -6 7 C-7.33333333 7.33333333 -8.66666667 7.66666667 -10 8 C-10.33 8.99 -10.66 9.98 -11 11 C-14.91147027 12.63735965 -18.81474495 13.40210642 -23 14 C-20.09492679 11.57910566 -17.36852957 9.68426478 -14 8 C-13.67 7.34 -13.34 6.68 -13 6 C-12.01 6 -11.02 6 -10 6 C-10 5.34 -10 4.68 -10 4 C-8.35 3.67 -6.7 3.34 -5 3 C-5 2.34 -5 1.68 -5 1 C-3 0 -3 0 0 0 Z " fill="#BB2729" transform="translate(431,121)"/>
<path d="M0 0 C3.53800031 0.5542361 4.77638067 1.58598616 6.875 4.4375 C9.62700332 7.85665564 11.74372984 8.79714104 16 10 C18.375 12 18.375 12 20 14 C20 14.66 20 15.32 20 16 C20.66 16 21.32 16 22 16 C23.56424629 19.12849259 23.18446398 22.44430084 23.1875 25.875 C23.19974609 26.59558594 23.21199219 27.31617188 23.22460938 28.05859375 C23.23512398 31.86487912 23.13584248 34.77513112 21 38 C21.01160156 37.21496094 21.02320313 36.42992187 21.03515625 35.62109375 C21.25000741 27.23392356 21.25000741 27.23392356 20 19 C18.06402968 17.48705712 18.06402968 17.48705712 16 17 C16 16.01 16 15.02 16 14 C15.34 14 14.68 14 14 14 C14 13.34 14 12.68 14 12 C13.34 12 12.68 12 12 12 C12 11.34 12 10.68 12 10 C11.071875 9.8453125 11.071875 9.8453125 10.125 9.6875 C8 9 8 9 6 6 C5.01 5.67 4.02 5.34 3 5 C3 4.34 3 3.68 3 3 C2.01 3 1.02 3 0 3 C0 2.01 0 1.02 0 0 Z " fill="#C32529" transform="translate(277,331)"/>
<path d="M0 0 C0.66 0 1.32 0 2 0 C2.50559908 1.43554025 3.0042749 2.8735202 3.5 4.3125 C3.7784375 5.11300781 4.056875 5.91351563 4.34375 6.73828125 C5 9 5 9 5 12 C5.66 12 6.32 12 7 12 C7.66 14.97 8.32 17.94 9 21 C9.66 21 10.32 21 11 21 C11 21.99 11 22.98 11 24 C10.01 23.67 9.02 23.34 8 23 C6.71875 20.19921875 6.71875 20.19921875 5.5 16.6875 C4.07765656 12.61649777 2.80554165 9.30303596 0 6 C-0.26554687 6.80824219 -0.53109375 7.61648437 -0.8046875 8.44921875 C-1.15789062 9.51785156 -1.51109375 10.58648437 -1.875 11.6875 C-2.22304688 12.74324219 -2.57109375 13.79898438 -2.9296875 14.88671875 C-3.87331366 17.63149994 -4.89491289 20.31692815 -6 23 C-6.66 23 -7.32 23 -8 23 C-7.67 21.02 -7.34 19.04 -7 17 C-6.34 17 -5.68 17 -5 17 C-5 14.69 -5 12.38 -5 10 C-4.34 10 -3.68 10 -3 10 C-2.86722656 9.36191406 -2.73445313 8.72382812 -2.59765625 8.06640625 C-2.42105469 7.24011719 -2.24445313 6.41382812 -2.0625 5.5625 C-1.88847656 4.73878906 -1.71445312 3.91507812 -1.53515625 3.06640625 C-1 1 -1 1 0 0 Z " fill="#BB2428" transform="translate(369,78)"/>
<path d="M0 0 C0.99 0.33 1.98 0.66 3 1 C3 1.66 3 2.32 3 3 C3.66 3 4.32 3 5 3 C5.33820166 4.5823006 5.67035939 6.16589375 6 7.75 C6.185625 8.63171875 6.37125 9.5134375 6.5625 10.421875 C7 13 7 13 7 17 C7.66 17 8.32 17 9 17 C9.66 19.97 10.32 22.94 11 26 C12.32 25.67 13.64 25.34 15 25 C15.66 25.33 16.32 25.66 17 26 C17 26.66 17 27.32 17 28 C14.36 28 11.72 28 9 28 C8.79503906 27.36191406 8.59007812 26.72382813 8.37890625 26.06640625 C8.10949219 25.24011719 7.84007812 24.41382813 7.5625 23.5625 C7.29566406 22.73878906 7.02882813 21.91507813 6.75390625 21.06640625 C6.17844506 19.03780412 6.17844506 19.03780412 5 18 C4.95919217 16.00041636 4.95745644 13.99954746 5 12 C4.34 12 3.68 12 3 12 C2.67 10.02 2.34 8.04 2 6 C1.34 6 0.68 6 0 6 C0 4.02 0 2.04 0 0 Z " fill="#FAD5CE" transform="translate(385,113)"/>
<path d="M0 0 C0 0.66 0 1.32 0 2 C0.66 2 1.32 2 2 2 C2.05787784 5.62493334 2.0935542 9.24974857 2.125 12.875 C2.14175781 13.90753906 2.15851563 14.94007813 2.17578125 16.00390625 C2.18222656 16.99003906 2.18867188 17.97617187 2.1953125 18.9921875 C2.20578613 19.90339355 2.21625977 20.81459961 2.22705078 21.75341797 C2 24 2 24 0 26 C0 18.74 0 11.48 0 4 C-6.27 4 -12.54 4 -19 4 C-14.51766139 0.63824604 -14.51766139 0.63824604 -10.375 0.375 C-0.94339623 -0.28301887 -0.94339623 -0.28301887 0 0 Z " fill="#DF0F10" transform="translate(367,374)"/>
<path d="M0 0 C3.74025767 3.95850208 4.61061536 6.72280122 4.9375 12.125 C5.02902344 13.34445312 5.12054688 14.56390625 5.21484375 15.8203125 C5 19 5 19 3.84765625 20.734375 C1.46996706 22.36306696 -0.9580272 23.76518122 -3.5 25.125 C-4.4590625 25.64320313 -5.418125 26.16140625 -6.40625 26.6953125 C-9 28 -9 28 -12 29 C-12 28.34 -12 27.68 -12 27 C-11.34 27 -10.68 27 -10 27 C-9.67 26.01 -9.34 25.02 -9 24 C-7.68 24 -6.36 24 -5 24 C-4.67 23.01 -4.34 22.02 -4 21 C-3.175 20.195625 -2.35 19.39125 -1.5 18.5625 C0.98429423 16.01609841 1.54341044 15.34623854 2 12 C1.69868336 9.98097434 1.69868336 9.98097434 1.0625 8 C0.18728295 5.03237663 0 3.23307152 0 0 Z " fill="#D72122" transform="translate(241,247)"/>
<path d="M0 0 C1.65 0 3.3 0 5 0 C4.34 1.65 3.68 3.3 3 5 C2.01 5 1.02 5 0 5 C0 8.96 0 12.92 0 17 C0.66 17 1.32 17 2 17 C2.50615298 18.26839526 3.00469099 19.53983102 3.5 20.8125 C3.91765625 21.87404297 3.91765625 21.87404297 4.34375 22.95703125 C5 25 5 25 5 28 C5.66 28 6.32 28 7 28 C7.66 30.97 8.32 33.94 9 37 C7.35 37 5.7 37 4 37 C4 36.34 4 35.68 4 35 C4.66 35 5.32 35 6 35 C6 33.02 6 31.04 6 29 C5.34 29 4.68 29 4 29 C4 28.01 4 27.02 4 26 C3.34 26 2.68 26 2 26 C2 24.68 2 23.36 2 22 C1.34 22 0.68 22 0 22 C-1.23482184 18.29553447 -1.14558202 14.8556992 -1.125 11 C-1.12886719 10.27554687 -1.13273437 9.55109375 -1.13671875 8.8046875 C-1.13081927 5.60717121 -1.01805798 3.05417393 0 0 Z " fill="#B23637" transform="translate(444,352)"/>
<path d="M0 0 C2.9719385 1.12451727 5.33440687 2.22293791 8 4 C8 4.66 8 5.32 8 6 C8.66 6 9.32 6 10 6 C10 6.99 10 7.98 10 9 C10.66 9 11.32 9 12 9 C12.66 10.65 13.32 12.3 14 14 C14.66 14 15.32 14 16 14 C16 14.99 16 15.98 16 17 C17.32 17.66 18.64 18.32 20 19 C20 19.66 20 20.32 20 21 C19.34 21 18.68 21 18 21 C18 20.34 18 19.68 18 19 C17.01 19 16.02 19 15 19 C15 18.01 15 17.02 15 16 C14.01 15.67 13.02 15.34 12 15 C12 14.34 12 13.68 12 13 C11.38125 12.9175 10.7625 12.835 10.125 12.75 C8 12 8 12 6.9375 10 C6.628125 9.34 6.31875 8.68 6 8 C5.01 7.67 4.02 7.34 3 7 C0 2.66666667 0 2.66666667 0 0 Z " fill="#CD1D20" transform="translate(257,310)"/>
<path d="M0 0 C1.32 0.33 2.64 0.66 4 1 C2.7632378 4.7102866 0.99979707 5.60016234 -2 8 C-2.33 8.99 -2.66 9.98 -3 11 C-3.66 11 -4.32 11 -5 11 C-5 11.99 -5 12.98 -5 14 C-5.66 14 -6.32 14 -7 14 C-7 15.32 -7 16.64 -7 18 C-8.98 18.99 -8.98 18.99 -11 20 C-10.67 18.68 -10.34 17.36 -10 16 C-9.34 16 -8.68 16 -8 16 C-8.33 13.03 -8.66 10.06 -9 7 C-8.34 7 -7.68 7 -7 7 C-7.33 6.01 -7.66 5.02 -8 4 C-7.34 4 -6.68 4 -6 4 C-6 4.66 -6 5.32 -6 6 C-3.96166576 4.7260411 -1.96147874 3.38938077 0 2 C0 1.34 0 0.68 0 0 Z " fill="#F3FCF7" transform="translate(451,180)"/>
<path d="M0 0 C0.33 0 0.66 0 1 0 C1.14301152 6.0506046 1.28541179 12.10122316 1.42724609 18.15185547 C1.47558062 20.21012765 1.52408205 22.26839592 1.57275391 24.32666016 C1.64269205 27.28547163 1.71202956 30.24429666 1.78125 33.203125 C1.80312378 34.12305237 1.82499756 35.04297974 1.84753418 35.99078369 C1.86755493 36.8513739 1.88757568 37.71196411 1.90820312 38.59863281 C1.93485046 39.73114471 1.93485046 39.73114471 1.96203613 40.88653564 C1.99863604 42.92406769 2 44.96213926 2 47 C-1.76508495 49.51005664 -4.39461609 49.0258295 -8.6875 48.625 C-9.7403418 48.53992188 -9.7403418 48.53992188 -10.81445312 48.453125 C-12.54380285 48.31195359 -14.27204088 48.15728041 -16 48 C-16 47.67 -16 47.34 -16 47 C-10.72 47 -5.44 47 0 47 C0 31.49 0 15.98 0 0 Z " fill="#FEEBE9" transform="translate(380,423)"/>
<path d="M0 0 C0.66 0.33 1.32 0.66 2 1 C1.01 1.66 0.02 2.32 -1 3 C-1.33 3.99 -1.66 4.98 -2 6 C-2.66 6 -3.32 6 -4 6 C-4 7.32 -4 8.64 -4 10 C-5.42578125 11.5625 -5.42578125 11.5625 -7.3125 13 C-10.01246699 15.14473184 -11.96018475 17.20867387 -14 20 C-14.66 20 -15.32 20 -16 20 C-16 20.66 -16 21.32 -16 22 C-16.66 22 -17.32 22 -18 22 C-18 20.68 -18 19.36 -18 18 C-17.01 18 -16.02 18 -15 18 C-14.896875 17.401875 -14.79375 16.80375 -14.6875 16.1875 C-13.90175967 13.68741714 -13.03081147 12.62464918 -11 11 C-10.34 11 -9.68 11 -9 11 C-9 10.34 -9 9.68 -9 9 C-7.125 6.875 -7.125 6.875 -5 5 C-4.34 5 -3.68 5 -3 5 C-2.87625 4.360625 -2.7525 3.72125 -2.625 3.0625 C-2.41875 2.381875 -2.2125 1.70125 -2 1 C-1.34 0.67 -0.68 0.34 0 0 Z " fill="#DB1215" transform="translate(498,298)"/>
<path d="M0 0 C0.66 0 1.32 0 2 0 C3.04559253 6.58723293 2.83292414 11.59233959 1 18 C1.99 18 2.98 18 4 18 C4 19.65 4 21.3 4 23 C3.34 23 2.68 23 2 23 C2 24.32 2 25.64 2 27 C1.34 27 0.68 27 0 27 C-1.50461426 17.97231444 -0.63647596 9.07712633 0 0 Z " fill="#F6F8F5" transform="translate(418,202)"/>
<path d="M0 0 C0 0.66 0 1.32 0 2 C-3.62286669 3.49176864 -7.26732501 4.80872075 -11 6 C-11.85658203 6.27457031 -11.85658203 6.27457031 -12.73046875 6.5546875 C-15.92184285 7.18087794 -19.00170675 7.09257679 -22.25 7.0625 C-23.51328125 7.05347656 -24.7765625 7.04445312 -26.078125 7.03515625 C-27.04234375 7.02355469 -28.0065625 7.01195312 -29 7 C-28.67 6.34 -28.34 5.68 -28 5 C-25.36 5.33 -22.72 5.66 -20 6 C-20 5.34 -20 4.68 -20 4 C-14.06 3.505 -14.06 3.505 -8 3 C-8 2.34 -8 1.68 -8 1 C-5.07175348 0.02391783 -3.04386724 -0.08226668 0 0 Z " fill="#C82425" transform="translate(495,204)"/>
<path d="M0 0 C0 0.66 0 1.32 0 2 C-3.63 2 -7.26 2 -11 2 C-11 2.66 -11 3.32 -11 4 C-21.395 4.99 -21.395 4.99 -32 6 C-31.67 5.01 -31.34 4.02 -31 3 C-26.5837353 2.49640653 -22.16692737 1.99774511 -17.75 1.5 C-16.49574219 1.35691406 -15.24148438 1.21382813 -13.94921875 1.06640625 C-12.14130859 0.86337891 -12.14130859 0.86337891 -10.296875 0.65625 C-9.18666992 0.53056641 -8.07646484 0.40488281 -6.93261719 0.27539062 C-4 0 -4 0 0 0 Z " fill="#BE2324" transform="translate(352,378)"/>
<path d="M0 0 C1.68514561 2.69623297 2.13725624 4.89193524 2.375 8 C2.69085836 11.19434118 2.91079455 11.89187219 5.0625 14.5 C5.701875 14.995 6.34125 15.49 7 16 C5.68 16.33 4.36 16.66 3 17 C2.34 15.35 1.68 13.7 1 12 C0.01 12 -0.98 12 -2 12 C-2 8.7 -2 5.4 -2 2 C-1.34 2 -0.68 2 0 2 C0 1.34 0 0.68 0 0 Z " fill="#F5F9F6" transform="translate(500,251)"/>
<path d="M0 0 C1.67542976 0.28604898 3.34385343 0.61781233 5 1 C3.68 1.33 2.36 1.66 1 2 C1 17.18 1 32.36 1 48 C0.67 48 0.34 48 0 48 C-0.16782889 41.32494807 -0.32779181 34.64974154 -0.48217773 27.97436523 C-0.5356848 25.70153492 -0.59102056 23.42874692 -0.64819336 21.15600586 C-0.72986216 17.89706551 -0.80504251 14.63803164 -0.87890625 11.37890625 C-0.90594131 10.35599991 -0.93297638 9.33309357 -0.96083069 8.27919006 C-0.98092697 7.33829025 -1.00102325 6.39739044 -1.02172852 5.42797852 C-1.04171402 4.59524918 -1.06169952 3.76251984 -1.08229065 2.90455627 C-1 1 -1 1 0 0 Z " fill="#B51F1F" transform="translate(377,375)"/>
<path d="M0 0 C1.32 0 2.64 0 4 0 C3 2 2 4 1 6 C0.01 6 -0.98 6 -2 6 C-2.268125 6.5775 -2.53625 7.155 -2.8125 7.75 C-4.02929189 10.05550043 -5.30333879 12.02056192 -7 14 C-7.66 14 -8.32 14 -9 14 C-9 14.66 -9 15.32 -9 16 C-9.99 16.33 -10.98 16.66 -12 17 C-12 15.68 -12 14.36 -12 13 C-11.34 13 -10.68 13 -10 13 C-9.6596875 12.071875 -9.6596875 12.071875 -9.3125 11.125 C-7.61137042 8.3707902 -5.94623846 8.17849539 -3 7 C-1.52421591 4.71253467 -0.86532451 2.59597353 0 0 Z " fill="#CB2A2E" transform="translate(476,320)"/>
<path d="M0 0 C0.66 0 1.32 0 2 0 C1.85873374 3.06277267 1.71215604 6.12513542 1.5625 9.1875 C1.50352539 10.48397461 1.50352539 10.48397461 1.44335938 11.80664062 C1.23652984 15.95914122 0.99896469 19.94537862 0 24 C-0.66 24 -1.32 24 -2 24 C-2 27.3 -2 30.6 -2 34 C-2.33 34 -2.66 34 -3 34 C-3.02717692 31.93757383 -3.0464758 29.87504297 -3.0625 27.8125 C-3.07410156 26.66394531 -3.08570313 25.51539063 -3.09765625 24.33203125 C-3.01192832 21.40699414 -2.67849023 18.83683709 -2 16 C-1.34 16 -0.68 16 0 16 C0 10.72 0 5.44 0 0 Z " fill="#BA2222" transform="translate(425,144)"/>
<path d="M0 0 C5.06397901 7.59596851 4.22221635 16.21010895 4 25 C3.34 25 2.68 25 2 25 C0.7472283 16.61090382 -0.36011137 8.50262969 0 0 Z " fill="#C43838" transform="translate(324,188)"/>
<path d="M0 0 C0.33 0.66 0.66 1.32 1 2 C1.66 2 2.32 2 3 2 C3 3.98 3 5.96 3 8 C3.66 8 4.32 8 5 8 C4.67 8.99 4.34 9.98 4 11 C3.5875 10.175 3.175 9.35 2.75 8.5 C2.1725 7.675 1.595 6.85 1 6 C-0.32 6 -1.64 6 -3 6 C-3.33 7.65 -3.66 9.3 -4 11 C-4.66 11 -5.32 11 -6 11 C-6 12.65 -6 14.3 -6 16 C-6.99 16 -7.98 16 -9 16 C-9 14.68 -9 13.36 -9 12 C-8.34 12 -7.68 12 -7 12 C-7 11.01 -7 10.02 -7 9 C-6.34 9 -5.68 9 -5 9 C-4.9175 8.443125 -4.835 7.88625 -4.75 7.3125 C-3.77389987 4.30285794 -2.04811186 2.37845248 0 0 Z " fill="#B92B2F" transform="translate(453,182)"/>
<path d="M0 0 C1.32 0.33 2.64 0.66 4 1 C4 1.66 4 2.32 4 3 C4.66 3.33 5.32 3.66 6 4 C4.68 4 3.36 4 2 4 C2.13277344 4.71285156 2.26554687 5.42570313 2.40234375 6.16015625 C3.88185363 14.1840675 5.14338079 21.82729486 5 30 C4.67 30 4.34 30 4 30 C3.86722656 29.00097656 3.73445313 28.00195312 3.59765625 26.97265625 C3.42105469 25.68230469 3.24445313 24.39195312 3.0625 23.0625 C2.88847656 21.77472656 2.71445312 20.48695313 2.53515625 19.16015625 C2.33837577 16.14533687 2.33837577 16.14533687 1 15 C0.76346477 12.47403741 0.57826308 9.96892793 0.4375 7.4375 C0.39431641 6.72658203 0.35113281 6.01566406 0.30664062 5.28320312 C0.20028223 3.52238088 0.09961154 1.7612168 0 0 Z " fill="#B84245" transform="translate(314,124)"/>
<path d="M0 0 C0.33 0.99 0.66 1.98 1 3 C0.071875 3.3403125 0.071875 3.3403125 -0.875 3.6875 C-3.23871582 4.85311983 -3.23871582 4.85311983 -4 7.5625 C-4.33 8.366875 -4.66 9.17125 -5 10 C-7.125 10.8125 -7.125 10.8125 -9 11 C-9.2165625 11.8971875 -9.2165625 11.8971875 -9.4375 12.8125 C-9.8872439 14.56150404 -10.42892341 16.28677023 -11 18 C-12.32 18 -13.64 18 -15 18 C-15 17.01 -15 16.02 -15 15 C-14.34 15 -13.68 15 -13 15 C-12.9175 14.38125 -12.835 13.7625 -12.75 13.125 C-12 11 -12 11 -10.0625 9.9375 C-9.381875 9.628125 -8.70125 9.31875 -8 9 C-7.34 8.01 -6.68 7.02 -6 6 C-5.34 6 -4.68 6 -4 6 C-4 5.34 -4 4.68 -4 4 C-3.34 4 -2.68 4 -2 4 C-1.34 2.68 -0.68 1.36 0 0 Z " fill="#F7D0D0" transform="translate(471,330)"/>
<path d="M0 0 C2.98362429 2.46977789 3.64272592 4.64993999 4.5 8.375 C5.29361978 11.58727053 5.85925674 13.78627875 7.6875 16.5625 C9.80327307 20.49179285 9.22919208 24.62837329 9 29 C8.34 29.33 7.68 29.66 7 30 C6.97421875 29.20335937 6.9484375 28.40671875 6.921875 27.5859375 C6.56728573 20.96156518 5.78260435 17.50196996 2 12 C1.07192079 8.03130769 0.49723385 4.04329627 0 0 Z " fill="#EC0607" transform="translate(238,234)"/>
<path d="M0 0 C0.33 0 0.66 0 1 0 C0.27113638 14.73071738 0.27113638 14.73071738 -1 19.3125 C-2.23209772 23.85586034 -2.63549953 28.31904656 -3 33 C-3.33 33 -3.66 33 -4 33 C-4.36799953 23.53423442 -3.22914592 14.36126309 -2 5 C-1.34 5 -0.68 5 0 5 C0 3.35 0 1.7 0 0 Z " fill="#EEB5B4" transform="translate(425,163)"/>
<path d="M0 0 C1.32 0 2.64 0 4 0 C4 8.91 4 17.82 4 27 C3.67 27 3.34 27 3 27 C2.01 18.09 1.02 9.18 0 0 Z " fill="#D70D0F" transform="translate(316,128)"/>
<path d="M0 0 C0.66 0 1.32 0 2 0 C2 2.31 2 4.62 2 7 C2.66 7 3.32 7 4 7 C4.33 10.3 4.66 13.6 5 17 C4.01 17 3.02 17 2 17 C2 18.32 2 19.64 2 21 C1.34 21 0.68 21 0 21 C0 14.07 0 7.14 0 0 Z " fill="#DE0C0E" transform="translate(299,348)"/>
<path d="M0 0 C-2.46842509 2.04526651 -4.8671549 3.92092553 -7.625 5.5625 C-10.01310018 6.87878186 -10.01310018 6.87878186 -11.6875 8.6875 C-12.120625 9.120625 -12.55375 9.55375 -13 10 C-13.66 10 -14.32 10 -15 10 C-15 9.34 -15 8.68 -15 8 C-14.01 8 -13.02 8 -12 8 C-12 6.02 -12 4.04 -12 2 C-7.52828892 -0.66173278 -5.06604612 -1.3268216 0 0 Z " fill="#FAE3DF" transform="translate(417,129)"/>
<path d="M0 0 C2.8670615 2.8670615 4 4.91591468 4 9 C2.68 9 1.36 9 0 9 C-1.65 12.3 -3.3 15.6 -5 19 C-6.06865997 14.72536011 -6.00970597 14.2951675 -4.1875 10.625 C-2.52127454 7.13688096 -1.1393698 3.70295186 0 0 Z " fill="#EC080B" transform="translate(369,82)"/>
<path d="M0 0 C0.33 0.99 0.66 1.98 1 3 C2.98045559 3.66179847 2.98045559 3.66179847 5 4 C6.94090826 5.94090826 6.39919435 9.47293902 6.5625 12.0625 C6.64628906 13.35285156 6.73007812 14.64320313 6.81640625 15.97265625 C6.87699219 16.97167969 6.93757813 17.97070312 7 19 C6.34 18.67 5.68 18.34 5 18 C4.29396596 14.25801961 4 10.81207261 4 7 C2.35 6.67 0.7 6.34 -1 6 C-0.67 4.02 -0.34 2.04 0 0 Z " fill="#FCE2DB" transform="translate(292,345)"/>
<path d="M0 0 C0.99 0 1.98 0 3 0 C3.20625 0.804375 3.4125 1.60875 3.625 2.4375 C4.07875 3.283125 4.5325 4.12875 5 5 C7.72859174 5.70642396 7.72859174 5.70642396 11 6 C13.71640497 6.89406854 16.33967407 7.94504317 19 9 C19 9.66 19 10.32 19 11 C19.66 11 20.32 11 21 11 C20.67 11.66 20.34 12.32 20 13 C19.34 12.67 18.68 12.34 18 12 C18 11.34 18 10.68 18 10 C12.06 9.01 12.06 9.01 6 8 C6 7.34 6 6.68 6 6 C4.68 6 3.36 6 2 6 C1.34 4.02 0.68 2.04 0 0 Z " fill="#BD3033" transform="translate(498,263)"/>
<path d="M0 0 C8.92728279 1.02404728 17.39486101 2.31648472 26 5 C26 5.33 26 5.66 26 6 C25.33355469 5.93941406 24.66710937 5.87882812 23.98046875 5.81640625 C22.59794922 5.69072266 22.59794922 5.69072266 21.1875 5.5625 C19.69089844 5.42328125 19.69089844 5.42328125 18.1640625 5.28125 C16.09779497 5.09758177 14.02999898 4.93017988 11.9609375 4.78125 C11.00445312 4.7090625 10.04796875 4.636875 9.0625 4.5625 C8.18722656 4.50191406 7.31195313 4.44132812 6.41015625 4.37890625 C3.91777242 3.98707281 2.17738401 3.24782796 0 2 C0 1.34 0 0.68 0 0 Z " fill="#E8090A" transform="translate(378,373)"/>
<path d="M0 0 C2.39763185 2.39763185 2.34280586 3.33273498 2.625 6.625 C2.69976562 7.44226563 2.77453125 8.25953125 2.8515625 9.1015625 C2.90054687 9.72804688 2.94953125 10.35453125 3 11 C3.66 11 4.32 11 5 11 C5 12.98 5 14.96 5 17 C5.66 17 6.32 17 7 17 C7 17.99 7 18.98 7 20 C6.01 19.67 5.02 19.34 4 19 C2.9375 16.75 2.9375 16.75 2 14 C1.62875 13.2575 1.2575 12.515 0.875 11.75 C-0.37217062 7.8303209 -0.15998041 4.07950054 0 0 Z " fill="#C32C2C" transform="translate(380,102)"/>
<path d="M0 0 C0.66 0.33 1.32 0.66 2 1 C0.8829081 4.01614813 -0.6125776 5.64508669 -3.0625 7.625 C-6.00824713 9.67119397 -6.00824713 9.67119397 -7 12 C-7.66 12 -8.32 12 -9 12 C-9 12.66 -9 13.32 -9 14 C-10.32 14.33 -11.64 14.66 -13 15 C-12.67 14.01 -12.34 13.02 -12 12 C-11.34 12 -10.68 12 -10 12 C-9.773125 11.278125 -9.54625 10.55625 -9.3125 9.8125 C-7.23096303 5.35206364 -4.04684244 2.69789496 0 0 Z " fill="#F7D3CF" transform="translate(510,290)"/>
<path d="M0 0 C0.33 0.66 0.66 1.32 1 2 C1.66 2 2.32 2 3 2 C3.33 1.34 3.66 0.68 4 0 C4 1.65 4 3.3 4 5 C3.34 5 2.68 5 2 5 C2 7.31 2 9.62 2 12 C1.34 11.01 0.68 10.02 0 9 C-0.66 9 -1.32 9 -2 9 C-2.33 9.66 -2.66 10.32 -3 11 C-3.36923077 3.49230769 -3.36923077 3.49230769 -1.5 1 C-1.005 0.67 -0.51 0.34 0 0 Z " fill="#F3FBFA" transform="translate(291,375)"/>
<path d="M0 0 C2.71224618 1.61268692 5.37352812 3.24901874 8 5 C8 5.66 8 6.32 8 7 C8.66 7 9.32 7 10 7 C11.625 8.375 11.625 8.375 13 10 C13 10.66 13 11.32 13 12 C13.99 12.33 14.98 12.66 16 13 C15.01 13.495 15.01 13.495 14 14 C11.875 13.0625 11.875 13.0625 10 12 C10 11.34 10 10.68 10 10 C8.8553125 9.938125 8.8553125 9.938125 7.6875 9.875 C5 9 5 9 3.3125 6 C2.879375 5.01 2.44625 4.02 2 3 C1.34 2.67 0.68 2.34 0 2 C0 1.34 0 0.68 0 0 Z " fill="#F9D6CE" transform="translate(231,290)"/>
<path d="M0 0 C0 0.99 0 1.98 0 3 C-0.9590625 3.1546875 -0.9590625 3.1546875 -1.9375 3.3125 C-2.618125 3.539375 -3.29875 3.76625 -4 4 C-4.33 4.99 -4.66 5.98 -5 7 C-8.91147027 8.63735965 -12.81474495 9.40210642 -17 10 C-14.09492679 7.57910566 -11.36852957 5.68426478 -8 4 C-7.67 3.34 -7.34 2.68 -7 2 C-4.6859378 1.26924352 -2.35171131 0.59861742 0 0 Z " fill="#D61B1B" transform="translate(425,125)"/>
<path d="M0 0 C1.47080605 4.41241815 0.98184915 8.48498154 0 13 C-1.9375 15.375 -1.9375 15.375 -4 17 C-5.23512079 19.13309192 -5.23512079 19.13309192 -6 21 C-7.125 17.25 -7.125 17.25 -6 15 C-5.34 15 -4.68 15 -4 15 C-3.81824219 14.00419922 -3.81824219 14.00419922 -3.6328125 12.98828125 C-2.77452292 8.46575541 -1.96028689 4.20061476 0 0 Z " fill="#C73335" transform="translate(353,117)"/>
<path d="M0 0 C0.99 0 1.98 0 3 0 C3 0.99 3 1.98 3 3 C-1.34285714 7 -1.34285714 7 -4 7 C-4 7.99 -4 8.98 -4 10 C-4.66 10 -5.32 10 -6 10 C-6.33 10.99 -6.66 11.98 -7 13 C-8.32 13 -9.64 13 -11 13 C-11 12.34 -11 11.68 -11 11 C-10.01 11 -9.02 11 -8 11 C-7.773125 10.236875 -7.54625 9.47375 -7.3125 8.6875 C-5.71982185 5.42630188 -4.09831569 4.74776782 -1 3 C-0.67 2.01 -0.34 1.02 0 0 Z " fill="#C91A1B" transform="translate(519,276)"/>
<path d="M0 0 C1.9375 0.3125 1.9375 0.3125 4 1 C4.33 1.99 4.66 2.98 5 4 C7.01508358 4.73323796 7.01508358 4.73323796 9 5 C9 5.66 9 6.32 9 7 C5.6875 7.25 5.6875 7.25 2 7 C0 5.1875 0 5.1875 -1 3 C-0.67 2.01 -0.34 1.02 0 0 Z " fill="#F9E7E5" transform="translate(255,313)"/>
<path d="M0 0 C-0.99 0.33 -1.98 0.66 -3 1 C-3.33 1.99 -3.66 2.98 -4 4 C-4.33 3.67 -4.66 3.34 -5 3 C-7.35313555 2.92728259 -9.70833668 2.91629132 -12.0625 2.9375 C-13.35285156 2.94652344 -14.64320313 2.95554687 -15.97265625 2.96484375 C-16.97167969 2.97644531 -17.97070312 2.98804688 -19 3 C-19 2.34 -19 1.68 -19 1 C-12.65333314 0.41639845 -6.37625222 -0.14491482 0 0 Z " fill="#F9DDD7" transform="translate(360,379)"/>
<path d="M0 0 C1.98 0 3.96 0 6 0 C7.56424629 3.12849259 7.18446398 6.44430084 7.1875 9.875 C7.19974609 10.59558594 7.21199219 11.31617188 7.22460938 12.05859375 C7.23512398 15.86487912 7.13584248 18.77513112 5 22 C5.01160156 21.21496094 5.02320313 20.42992187 5.03515625 19.62109375 C5.23687372 11.23623104 5.23687372 11.23623104 4 3 C2.08261145 1.03712176 2.08261145 1.03712176 0 0 Z " fill="#CE4646" transform="translate(293,347)"/>
<path d="M0 0 C0.33 0 0.66 0 1 0 C0.85811015 2.54194161 0.71160845 5.08347993 0.5625 7.625 C0.50352539 8.69427734 0.50352539 8.69427734 0.44335938 9.78515625 C0.19690319 13.91803682 -0.23470053 17.92269024 -1 22 C-1.66 22 -2.32 22 -3 22 C-2.88482579 19.64499052 -2.75812022 17.29150927 -2.625 14.9375 C-2.55539062 13.62652344 -2.48578125 12.31554687 -2.4140625 10.96484375 C-2.00194564 7.01863043 -1.20243433 3.75882927 0 0 Z " fill="#BF1E1F" transform="translate(421,180)"/>
<path d="M0 0 C0.99 0.33 1.98 0.66 3 1 C4.1875 4.5625 4.1875 4.5625 5 8 C7.97 8.33 10.94 8.66 14 9 C14 9.66 14 10.32 14 11 C12.741875 11.04125 11.48375 11.0825 10.1875 11.125 C9.47980469 11.14820313 8.77210938 11.17140625 8.04296875 11.1953125 C6 11 6 11 3 9 C2.3125 5.875 2.3125 5.875 2 3 C1.34 3 0.68 3 0 3 C0 2.01 0 1.02 0 0 Z " fill="#F8CDC9" transform="translate(461,199)"/>
<path d="M0 0 C1.65 0 3.3 0 5 0 C4.34 1.65 3.68 3.3 3 5 C2.01 5 1.02 5 0 5 C0.33 10.61 0.66 16.22 1 22 C-1.49617831 18.25573254 -1.26063055 15.32624928 -1.1875 11 C-1.18685547 10.27554687 -1.18621094 9.55109375 -1.18554688 8.8046875 C-1.15907756 5.61660553 -1.0144479 3.04334371 0 0 Z " fill="#C11B21" transform="translate(444,352)"/>
<path d="M0 0 C0.99 0.33 1.98 0.66 3 1 C2.195625 1.61875 1.39125 2.2375 0.5625 2.875 C-2.03874519 4.74164041 -2.03874519 4.74164041 -3 7 C-4.33333333 7.33333333 -5.66666667 7.66666667 -7 8 C-7.33 8.66 -7.66 9.32 -8 10 C-8.66 10 -9.32 10 -10 10 C-10.33 10.66 -10.66 11.32 -11 12 C-11 10.35 -11 8.7 -11 7 C-8.35261084 5.5393715 -7.10551666 5 -4 5 C-3.67 4.01 -3.34 3.02 -3 2 C-2.01 1.34 -1.02 0.68 0 0 Z " fill="#FBD6D0" transform="translate(239,264)"/>
<path d="M0 0 C1.32 0 2.64 0 4 0 C4 0.66 4 1.32 4 2 C0.52674819 3.1577506 -2.36067448 3.06866652 -6 3 C-6 3.66 -6 4.32 -6 5 C-6.66 5 -7.32 5 -8 5 C-8 5.66 -8 6.32 -8 7 C-9.65 7 -11.3 7 -13 7 C-12.34 5.35 -11.68 3.7 -11 2 C-7.37 2 -3.74 2 0 2 C0 1.34 0 0.68 0 0 Z " fill="#FDDDDB" transform="translate(495,200)"/>
<path d="M0 0 C0 1.32 0 2.64 0 4 C-0.66 4 -1.32 4 -2 4 C-2 3.34 -2 2.68 -2 2 C-5.3 2.33 -8.6 2.66 -12 3 C-12 3.66 -12 4.32 -12 5 C-15.82989106 6.80230168 -18.78121808 7.19622241 -23 7 C-23 6.34 -23 5.68 -23 5 C-19.7 4.67 -16.4 4.34 -13 4 C-13 3.34 -13 2.68 -13 2 C-11.20873548 1.66451233 -9.41697413 1.33167645 -7.625 1 C-6.62726563 0.814375 -5.62953125 0.62875 -4.6015625 0.4375 C-2 0 -2 0 0 0 Z " fill="#BA504F" transform="translate(512,198)"/>
<path d="M0 0 C0.33 0 0.66 0 1 0 C2.29901921 8.04927976 3.33853295 15.83759432 3 24 C2.67 24 2.34 24 2 24 C1.46533772 21.31460585 0.94705317 18.62767372 0.4375 15.9375 C0.28603516 15.18533203 0.13457031 14.43316406 -0.02148438 13.65820312 C-0.93204475 8.7665881 -0.9794845 4.8844492 0 0 Z " fill="#FCDEDC" transform="translate(316,140)"/>
<path d="M0 0 C5.94 0 11.88 0 18 0 C18 0.33 18 0.66 18 1 C17.04287109 1.09087891 17.04287109 1.09087891 16.06640625 1.18359375 C15.24011719 1.26738281 14.41382813 1.35117187 13.5625 1.4375 C12.32693359 1.55931641 12.32693359 1.55931641 11.06640625 1.68359375 C9.01337975 1.78930815 9.01337975 1.78930815 8 3 C6.48071962 3.07179964 4.95832518 3.08392007 3.4375 3.0625 C2.61121094 3.05347656 1.78492188 3.04445313 0.93359375 3.03515625 C0.29550781 3.02355469 -0.34257812 3.01195312 -1 3 C-0.67 2.01 -0.34 1.02 0 0 Z " fill="#EE080B" transform="translate(312,380)"/>
<path d="M0 0 C1.60294922 0.01353516 1.60294922 0.01353516 3.23828125 0.02734375 C4.04652344 0.03894531 4.85476563 0.05054688 5.6875 0.0625 C5.6875 0.3925 5.6875 0.7225 5.6875 1.0625 C3.0475 1.0625 0.4075 1.0625 -2.3125 1.0625 C-2.3125 2.0525 -2.3125 3.0425 -2.3125 4.0625 C-9.0625 4.1875 -9.0625 4.1875 -11.3125 3.0625 C-11.3125 2.4025 -11.3125 1.7425 -11.3125 1.0625 C-7.47525828 0.15836327 -3.93747726 -0.04326898 0 0 Z " fill="#F6D7D1" transform="translate(304.3125,385.9375)"/>
<path d="M0 0 C-1.2065625 0.37125 -1.2065625 0.37125 -2.4375 0.75 C-5.171081 1.72238859 -5.171081 1.72238859 -5.8125 4.125 C-5.874375 4.74375 -5.93625 5.3625 -6 6 C-6.66 6 -7.32 6 -8 6 C-8 6.99 -8 7.98 -8 9 C-10.5 11.1875 -10.5 11.1875 -13 13 C-13.33 12.34 -13.66 11.68 -14 11 C-13.34 11 -12.68 11 -12 11 C-11.7525 10.29875 -11.505 9.5975 -11.25 8.875 C-7.72151899 0.75949367 -7.72151899 0.75949367 -3.875 -0.9375 C-2 -1 -2 -1 0 0 Z " fill="#BF292D" transform="translate(464,339)"/>
<path d="M0 0 C2.31399023 2.31399023 2.32256804 2.98604724 2.6328125 6.1328125 C2.71660156 6.93847656 2.80039062 7.74414062 2.88671875 8.57421875 C2.96535156 9.41597656 3.04398437 10.25773438 3.125 11.125 C3.21136719 11.97449219 3.29773438 12.82398438 3.38671875 13.69921875 C3.59902557 15.79869727 3.80053603 17.89926242 4 20 C0.57701818 16.57701818 0.08800264 11.93605811 -0.125 7.25 C-0.125 4.82992146 -0.08920009 2.41831358 0 0 Z " fill="#E60B0B" transform="translate(324,178)"/>
<path d="M0 0 C4.875 3.75 4.875 3.75 6 6 C6.66 6 7.32 6 8 6 C8.66 7.65 9.32 9.3 10 11 C9.34 11 8.68 11 8 11 C8 10.34 8 9.68 8 9 C7.443125 8.938125 6.88625 8.87625 6.3125 8.8125 C2.51666774 7.47882921 -0.21170413 4.57659173 -2 1 C-1.34 0.67 -0.68 0.34 0 0 Z " fill="#F9E1D9" transform="translate(323,127)"/>
<path d="M0 0 C0.66 0 1.32 0 2 0 C3.0748291 6.27467799 2.88341198 10.90660831 1 17 C0.67 17 0.34 17 0 17 C0 11.39 0 5.78 0 0 Z " fill="#F9DED5" transform="translate(418,202)"/>
<path d="M0 0 C2.12508244 3.18762365 2.5020163 5.26512223 3 9 C3.66 9 4.32 9 5 9 C5.12375 9.969375 5.2475 10.93875 5.375 11.9375 C5.684375 13.4534375 5.684375 13.4534375 6 15 C6.66 15.33 7.32 15.66 8 16 C5.39863454 15.64119097 4.23341021 15.24714022 2.40625 13.3125 C0.70279734 10.51126674 0.50630526 8.50592831 0.3125 5.25 C0.24675781 4.26515625 0.18101562 3.2803125 0.11328125 2.265625 C0.07589844 1.51796875 0.03851563 0.7703125 0 0 Z " fill="#C51E22" transform="translate(458,193)"/>
<path d="M0 0 C6.41688675 -0.10349817 12.62694402 0.25492456 19 1 C19 1.33 19 1.66 19 2 C17.72125 2.144375 16.4425 2.28875 15.125 2.4375 C12.74307106 2.70642746 11.15547309 2.92226346 9 4 C7.08984375 3.73046875 7.08984375 3.73046875 4.9375 3.1875 C4.22464844 3.01605469 3.51179688 2.84460938 2.77734375 2.66796875 C1 2 1 2 0 0 Z " fill="#F7CBC4" transform="translate(429,386)"/>
<path d="M0 0 C0.66 0 1.32 0 2 0 C2 2.31 2 4.62 2 7 C1.34 7 0.68 7 0 7 C0.2784375 8.1446875 0.2784375 8.1446875 0.5625 9.3125 C1 12 1 12 0 15 C-0.66 15 -1.32 15 -2 15 C-1.85816304 13.24967156 -1.71136571 11.49974466 -1.5625 9.75 C-1.48128906 8.77546875 -1.40007812 7.8009375 -1.31640625 6.796875 C-1.04925416 4.43538247 -0.64628032 2.28098935 0 0 Z " fill="#FCE0DE" transform="translate(508,213)"/>
<path d="M0 0 C0.33 0 0.66 0 1 0 C1 5.94 1 11.88 1 18 C0.01 18 -0.98 18 -2 18 C-1.33333333 12 -0.66666667 6 0 0 Z " fill="#DE0E0D" transform="translate(427,126)"/>
<path d="M0 0 C0.99 0.33 1.98 0.66 3 1 C3 1.66 3 2.32 3 3 C3.66 3 4.32 3 5 3 C5.33 4.98 5.66 6.96 6 9 C4.68 9 3.36 9 2 9 C2 8.01 2 7.02 2 6 C1.34 6 0.68 6 0 6 C0 4.02 0 2.04 0 0 Z " fill="#F7ECE4" transform="translate(385,113)"/>
<path d="M0 0 C6.75 -0.125 6.75 -0.125 9 1 C9 1.66 9 2.32 9 3 C11.475 3.99 11.475 3.99 14 5 C14 5.99 14 6.98 14 8 C13.34 8 12.68 8 12 8 C12 7.34 12 6.68 12 6 C11.34 6 10.68 6 10 6 C10 5.34 10 4.68 10 4 C8.906875 3.896875 7.81375 3.79375 6.6875 3.6875 C3.14440371 3.02692273 2.06756277 2.7972908 0 0 Z " fill="#FDE0DC" transform="translate(507,268)"/>
<path d="M0 0 C1.485 0.99 1.485 0.99 3 2 C3 2.66 3 3.32 3 4 C3.66 4 4.32 4 5 4 C5.66 6.31 6.32 8.62 7 11 C9.97 11.495 9.97 11.495 13 12 C13 12.33 13 12.66 13 13 C10.69 13 8.38 13 6 13 C5.67 11.68 5.34 10.36 5 9 C4.34 9 3.68 9 3 9 C0 3.375 0 3.375 0 0 Z " fill="#C63D3D" transform="translate(316,222)"/>
<path d="M0 0 C0.33 0 0.66 0 1 0 C1.05454409 2.35448675 1.0939279 4.70767875 1.125 7.0625 C1.14820313 8.37347656 1.17140625 9.68445313 1.1953125 11.03515625 C0.99417522 15.11824299 0.27165462 18.14999053 -1 22 C-1.33 22 -1.66 22 -2 22 C-2.29883729 14.52906777 -1.15925507 7.36955011 0 0 Z " fill="#E7080E" transform="translate(421,165)"/>
<path d="M0 0 C-1.423125 0.3403125 -1.423125 0.3403125 -2.875 0.6875 C-6.18488193 1.68302083 -6.18488193 1.68302083 -7.3125 4.5625 C-7.539375 5.366875 -7.76625 6.17125 -8 7 C-9 8 -9 8 -11.50390625 8.09765625 C-13.01791016 8.08025391 -13.01791016 8.08025391 -14.5625 8.0625 C-15.57441406 8.05347656 -16.58632813 8.04445312 -17.62890625 8.03515625 C-18.41136719 8.02355469 -19.19382812 8.01195312 -20 8 C-20 7.67 -20 7.34 -20 7 C-19.31292969 6.99742187 -18.62585938 6.99484375 -17.91796875 6.9921875 C-15.16183343 6.87389843 -12.67504778 6.68613239 -10 6 C-8.1244258 3.08289958 -8.1244258 3.08289958 -7 0 C-4.07380549 -1.07055897 -2.8067059 -1.40335295 0 0 Z " fill="#D81215" transform="translate(414,135)"/>
<path d="M0 0 C1.875 0.3125 1.875 0.3125 4 1 C4.66 1.99 5.32 2.98 6 4 C6.99 4.33 7.98 4.66 9 5 C9 5.66 9 6.32 9 7 C9.66 7 10.32 7 11 7 C10.67 7.66 10.34 8.32 10 9 C9.34 8.67 8.68 8.34 8 8 C8 7.34 8 6.68 8 6 C6.02 6.99 6.02 6.99 4 8 C3.34 7.34 2.68 6.68 2 6 C2.33 5.01 2.66 4.02 3 3 C2.01 2.67 1.02 2.34 0 2 C0 1.34 0 0.68 0 0 Z " fill="#F7D4D2" transform="translate(280,336)"/>
<path d="M0 0 C0.99 0.33 1.98 0.66 3 1 C3.12117188 1.91523437 3.24234375 2.83046875 3.3671875 3.7734375 C3.53476562 4.96195312 3.70234375 6.15046875 3.875 7.375 C4.03742188 8.55835937 4.19984375 9.74171875 4.3671875 10.9609375 C4.7302585 14.09566659 4.7302585 14.09566659 7 16 C6.625 18.125 6.625 18.125 6 20 C5.54625 19.236875 5.0925 18.47375 4.625 17.6875 C3.46175508 15.76367186 2.2470585 13.87058776 1 12 C0.83984375 9.84375 0.83984375 9.84375 0.9375 7.5 C1.05183243 4.51741494 0.96483093 2.89449278 0 0 Z " fill="#EA070C" transform="translate(377,101)"/>
<path d="M0 0 C0 3 0 3 -2.3125 5.625 C-5 8 -5 8 -8 9 C-8 9.66 -8 10.32 -8 11 C-8.66 11 -9.32 11 -10 11 C-10 9.68 -10 8.36 -10 7 C-7.8125 5.5 -7.8125 5.5 -5 4 C-3.31522656 2.68962066 -1.64351457 1.36176922 0 0 Z " fill="#BF262A" transform="translate(490,309)"/>
<path d="M0 0 C2.12046792 3.53411321 2.53199289 6.94393835 3 11 C1.68 11 0.36 11 -1 11 C-1.0270043 9.54176788 -1.04639787 8.08339325 -1.0625 6.625 C-1.07410156 5.81289062 -1.08570313 5.00078125 -1.09765625 4.1640625 C-1 2 -1 2 0 0 Z " fill="#F3FBFA" transform="translate(325,222)"/>
<path d="M0 0 C0.99 0.495 0.99 0.495 2 1 C2 1.66 2 2.32 2 3 C2.66 3 3.32 3 4 3 C4.84069415 4.60032137 5.67231505 6.20541171 6.5 7.8125 C6.9640625 8.70582031 7.428125 9.59914062 7.90625 10.51953125 C9 13 9 13 9 16 C8.01 15.67 7.02 15.34 6 15 C5.31526605 12.67190457 4.65146849 10.33762223 4 8 C2.70211044 5.97681922 1.37535339 3.97133986 0 2 C0 1.34 0 0.68 0 0 Z " fill="#C12B2A" transform="translate(306,207)"/>
<path d="M0 0 C1.32 0.33 2.64 0.66 4 1 C3.01 1 2.02 1 1 1 C0.896875 1.763125 0.79375 2.52625 0.6875 3.3125 C-0.0690983 6.27011154 -0.81772825 6.99230999 -3 9 C-4.17574711 11.09989652 -4.17574711 11.09989652 -5 13 C-5.125 6.25 -5.125 6.25 -4 4 C-3.34 4 -2.68 4 -2 4 C-1.34 2.68 -0.68 1.36 0 0 Z " fill="#F5D4CA" transform="translate(427,215)"/>
<path d="M0 0 C4.95 0.33 9.9 0.66 15 1 C15 1.33 15 1.66 15 2 C10.71 2 6.42 2 2 2 C2 3.32 2 4.64 2 6 C1.34 6 0.68 6 0 6 C0 4.02 0 2.04 0 0 Z " fill="#B12228" transform="translate(227,201)"/>
<path d="M0 0 C0.66 0 1.32 0 2 0 C1.125 4.75 1.125 4.75 0 7 C-2.90259811 8.3749149 -4.76138705 9 -8 9 C-7.34 8.01 -6.68 7.02 -6 6 C-5.01 6 -4.02 6 -3 6 C-2.690625 5.38125 -2.38125 4.7625 -2.0625 4.125 C-1.375 2.75 -0.6875 1.375 0 0 Z " fill="#F9DCD9" transform="translate(480,320)"/>
<path d="M0 0 C0.639375 0.2475 1.27875 0.495 1.9375 0.75 C2.2675 1.74 2.5975 2.73 2.9375 3.75 C2.6075 4.41 2.2775 5.07 1.9375 5.75 C0.2875 5.42 -1.3625 5.09 -3.0625 4.75 C-3.3925 3.43 -3.7225 2.11 -4.0625 0.75 C-2.0625 -0.25 -2.0625 -0.25 0 0 Z " fill="#F6EEEE" transform="translate(224.0625,282.25)"/>
<path d="M0 0 C0.66 0 1.32 0 2 0 C2 1.65 2 3.3 2 5 C2.66 5 3.32 5 4 5 C4 7.64 4 10.28 4 13 C3.01 12.34 2.02 11.68 1 11 C0.59156077 8.28796348 0.86663133 5.7562858 1 3 C0.34 3 -0.32 3 -1 3 C-0.67 2.01 -0.34 1.02 0 0 Z " fill="#F8DFDB" transform="translate(235,234)"/>
<path d="M0 0 C0.33 0 0.66 0 1 0 C0.67 4.62 0.34 9.24 0 14 C-0.66 14 -1.32 14 -2 14 C-2.3690205 4.58997722 -2.3690205 4.58997722 0 0 Z " fill="#C72828" transform="translate(415,220)"/>
<path d="M0 0 C0.8125 1.6875 0.8125 1.6875 1 4 C-1.25 6.75 -1.25 6.75 -4 9 C-4.99 9 -5.98 9 -7 9 C-7.33 7.35 -7.66 5.7 -8 4 C-5.525 4.495 -5.525 4.495 -3 5 C-2.01 3.35 -1.02 1.7 0 0 Z " fill="#EC070D" transform="translate(422,230)"/>
<path d="M0 0 C1.58167969 0.14695313 1.58167969 0.14695313 3.1953125 0.296875 C4.76925781 0.42835938 4.76925781 0.42835938 6.375 0.5625 C9.11212396 1.0126371 10.95083579 1.65037182 13.3203125 3.046875 C13.3203125 3.376875 13.3203125 3.706875 13.3203125 4.046875 C11.0103125 4.046875 8.7003125 4.046875 6.3203125 4.046875 C6.3203125 3.386875 6.3203125 2.726875 6.3203125 2.046875 C2.6903125 2.046875 -0.9396875 2.046875 -4.6796875 2.046875 C-2.6796875 0.046875 -2.6796875 0.046875 0 0 Z " fill="#FCDAD5" transform="translate(246.6796875,200.953125)"/>
<path d="M0 0 C1.2077558 3.62326739 0.54311128 4.64146369 -1 8 C-1.66 8 -2.32 8 -3 8 C-3 10.31 -3 12.62 -3 15 C-3.66 15 -4.32 15 -5 15 C-5 12.36 -5 9.72 -5 7 C-4.01 6.67 -3.02 6.34 -2 6 C-2 4.68 -2 3.36 -2 2 C-1.34 2 -0.68 2 0 2 C0 1.34 0 0.68 0 0 Z " fill="#FBD9D5" transform="translate(367,80)"/>
<path d="M0 0 C0.33 0.99 0.66 1.98 1 3 C-0.45449401 4.0055761 -1.91372443 5.00430435 -3.375 6 C-4.59316406 6.8353125 -4.59316406 6.8353125 -5.8359375 7.6875 C-8 9 -8 9 -10 9 C-10 8.34 -10 7.68 -10 7 C-9.34 7 -8.68 7 -8 7 C-7.67 6.01 -7.34 5.02 -7 4 C-5.68 4 -4.36 4 -3 4 C-2.67 3.01 -2.34 2.02 -2 1 C-1.34 0.67 -0.68 0.34 0 0 Z " fill="#BA2727" transform="translate(239,267)"/>
<path d="M0 0 C0.66 0 1.32 0 2 0 C2 0.66 2 1.32 2 2 C5.63 2 9.26 2 13 2 C9 5 9 5 6.859375 5.07421875 C4.90625 4.71614583 2.953125 4.35807292 1 4 C0.67 2.68 0.34 1.36 0 0 Z " fill="#E40909" transform="translate(464,209)"/>
<path d="M0 0 C0.66 0 1.32 0 2 0 C2 0.99 2 1.98 2 3 C1.34 3 0.68 3 0 3 C0 3.99 0 4.98 0 6 C-0.66 6 -1.32 6 -2 6 C-2 7.32 -2 8.64 -2 10 C-3.98 10.99 -3.98 10.99 -6 12 C-5.67 10.68 -5.34 9.36 -5 8 C-4.34 8 -3.68 8 -3 8 C-2.67 6.02 -2.34 4.04 -2 2 C-1.34 2 -0.68 2 0 2 C0 1.34 0 0.68 0 0 Z " fill="#F6C6C7" transform="translate(446,188)"/>
<path d="M0 0 C0.33 0 0.66 0 1 0 C2.03590199 5.05002222 2.10251672 9.87416389 2 15 C1.34 14.67 0.68 14.34 0 14 C-0.44921875 11.09375 -0.44921875 11.09375 -0.6875 7.5 C-0.77386719 6.3140625 -0.86023438 5.128125 -0.94921875 3.90625 C-0.96597656 2.9471875 -0.98273438 1.988125 -1 1 C-0.67 0.67 -0.34 0.34 0 0 Z " fill="#FBEAE2" transform="translate(313,124)"/>
<path d="M0 0 C1.67542976 0.28604898 3.34385343 0.61781233 5 1 C3.68 1.33 2.36 1.66 1 2 C1 6.95 1 11.9 1 17 C0.67 17 0.34 17 0 17 C-0.19386492 14.35448944 -0.38038267 11.70882217 -0.5625 9.0625 C-0.61857422 8.30775391 -0.67464844 7.55300781 -0.73242188 6.77539062 C-0.86176157 4.85254042 -0.93516912 2.92610452 -1 1 C-0.67 0.67 -0.34 0.34 0 0 Z " fill="#C32523" transform="translate(377,375)"/>
<path d="M0 0 C1.32 0.33 2.64 0.66 4 1 C4 1.66 4 2.32 4 3 C4.99 3.33 5.98 3.66 7 4 C7.6875 6.0625 7.6875 6.0625 8 8 C4.67689517 6.83242263 2.16638868 5.85051143 0 3 C0 2.01 0 1.02 0 0 Z " fill="#FAE6DE" transform="translate(247,305)"/>
<path d="M0 0 C0 0.66 0 1.32 0 2 C-0.99 2 -1.98 2 -3 2 C-2.67 3.65 -2.34 5.3 -2 7 C-3.65 6.67 -5.3 6.34 -7 6 C-7.33 5.01 -7.66 4.02 -8 3 C-3.375 0 -3.375 0 0 0 Z " fill="#BA3339" transform="translate(229,276)"/>
<path d="M0 0 C3.41281372 2.64803754 3.83195549 5.57273832 4.6875 9.6875 C4.93886719 10.86699219 5.19023437 12.04648438 5.44921875 13.26171875 C5.63097656 14.16535156 5.81273437 15.06898438 6 16 C2.23892444 12.85048144 1.3788455 10.57114884 0.75 5.75 C0.60046875 4.67234375 0.4509375 3.5946875 0.296875 2.484375 C0.19890625 1.66453125 0.1009375 0.8446875 0 0 Z " fill="#DE0A10" transform="translate(238,234)"/>
<path d="M0 0 C1.32 0 2.64 0 4 0 C4.33 0.66 4.66 1.32 5 2 C7.52733235 2.65555119 7.52733235 2.65555119 10 3 C10 2.01 10 1.02 10 0 C10.66 0 11.32 0 12 0 C11.67 1.32 11.34 2.64 11 4 C8.03 4 5.06 4 2 4 C1.34 2.68 0.68 1.36 0 0 Z " fill="#FBDBD1" transform="translate(333,138)"/>
<path d="M0 0 C0.93423645 3.01031744 1.04449911 3.86650268 0 7 C-0.66 7 -1.32 7 -2 7 C-2.33 8.98 -2.66 10.96 -3 13 C-3.33 13 -3.66 13 -4 13 C-4.45732667 7.28341664 -3.52273754 4.51350747 0 0 Z " fill="#F6D1CD" transform="translate(349,125)"/>
<path d="M0 0 C0.99 0.33 1.98 0.66 3 1 C4.3125 3.875 4.3125 3.875 5 7 C4.01 8.485 4.01 8.485 3 10 C0 3.375 0 3.375 0 0 Z " fill="#FBEAE1" transform="translate(451,380)"/>
<path d="M0 0 C0.66 0 1.32 0 2 0 C2 0.66 2 1.32 2 2 C1.34 2 0.68 2 0 2 C-0.226875 2.598125 -0.45375 3.19625 -0.6875 3.8125 C-2.33811133 6.56351888 -4.1972081 7.52484637 -7 9 C-7.33 8.01 -7.66 7.02 -8 6 C-3.25 3 -3.25 3 -1 3 C-0.67 2.01 -0.34 1.02 0 0 Z " fill="#F5CCD0" transform="translate(454,348)"/>
<path d="M0 0 C2.475 0.99 2.475 0.99 5 2 C5 2.66 5 3.32 5 4 C5.99 4.33 6.98 4.66 8 5 C9.1875 7.5625 9.1875 7.5625 10 10 C5.2 7.53846154 5.2 7.53846154 4.1875 4.8125 C4.0946875 3.9153125 4.0946875 3.9153125 4 3 C2.68 2.67 1.36 2.34 0 2 C0 1.34 0 0.68 0 0 Z " fill="#BD2C2E" transform="translate(226,283)"/>
<path d="M0 0 C1.53166168 4.08443115 0.63081652 7.79455657 0 12 C-0.66 12 -1.32 12 -2 12 C-2 8.7 -2 5.4 -2 2 C-1.34 2 -0.68 2 0 2 C0 1.34 0 0.68 0 0 Z " fill="#FED5CB" transform="translate(500,251)"/>
<path d="M0 0 C0.99 0 1.98 0 3 0 C6 5.625 6 5.625 6 9 C6.66 9 7.32 9 8 9 C7.67 9.99 7.34 10.98 7 12 C7 11.34 7 10.68 7 10 C6.34 10 5.68 10 5 10 C2 4.25 2 4.25 2 2 C1.34 2 0.68 2 0 2 C0 1.34 0 0.68 0 0 Z " fill="#FAD5D1" transform="translate(298,192)"/>
<path d="M0 0 C1.40980321 4.22940963 -0.07526585 6.08179119 -2 10 C-3.6875 12.4375 -3.6875 12.4375 -5 14 C-5.33 13.01 -5.66 12.02 -6 11 C-5.34 10.01 -4.68 9.02 -4 8 C-3.34 8 -2.68 8 -2 8 C-1.855625 6.865625 -1.71125 5.73125 -1.5625 4.5625 C-1 1 -1 1 0 0 Z " fill="#FBE2DB" transform="translate(281,193)"/>
<path d="M0 0 C1.37095624 3.69037278 0.60010967 5.70883835 -0.9375 9.25 C-1.31777344 10.14203125 -1.69804687 11.0340625 -2.08984375 11.953125 C-2.39019531 12.62859375 -2.69054687 13.3040625 -3 14 C-3.66 14 -4.32 14 -5 14 C-3.8545847 8.8896856 -2.54521255 4.62765919 0 0 Z " fill="#E10A09" transform="translate(286,189)"/>
<path d="M0 0 C6.57142857 4 6.57142857 4 8 8 C7.01 8 6.02 8 5 8 C5 7.34 5 6.68 5 6 C2.525 5.01 2.525 5.01 0 4 C0 2.68 0 1.36 0 0 Z " fill="#C7292F" transform="translate(320,128)"/>
<path d="M0 0 C0.33 0.99 0.66 1.98 1 3 C1.99 3 2.98 3 4 3 C4.33 5.64 4.66 8.28 5 11 C4.67 9.68 4.34 8.36 4 7 C2.35 6.67 0.7 6.34 -1 6 C-0.67 4.02 -0.34 2.04 0 0 Z " fill="#F8E8E5" transform="translate(292,345)"/>
<path d="M0 0 C0.66 0 1.32 0 2 0 C2 1.98 2 3.96 2 6 C0.02 6.33 -1.96 6.66 -4 7 C-2.68 4.69 -1.36 2.38 0 0 Z " fill="#F0FCF8" transform="translate(468,335)"/>
<path d="M0 0 C5.78461538 4.43076923 5.78461538 4.43076923 6.875 7.3125 C6.936875 8.1478125 6.936875 8.1478125 7 9 C6.01 8.67 5.02 8.34 4 8 C4 7.34 4 6.68 4 6 C3.34 6 2.68 6 2 6 C2 5.34 2 4.68 2 4 C1.01 3.67 0.02 3.34 -1 3 C-0.67 2.01 -0.34 1.02 0 0 Z " fill="#C4201F" transform="translate(237,291)"/>
<path d="M0 0 C0.66 0.33 1.32 0.66 2 1 C1.01 2.485 1.01 2.485 0 4 C-0.66 4 -1.32 4 -2 4 C-2.2475 4.61875 -2.495 5.2375 -2.75 5.875 C-4.20628639 8.35068687 -5.37812506 8.95125002 -8 10 C-7.67 9.01 -7.34 8.02 -7 7 C-6.34 7 -5.68 7 -5 7 C-5 6.01 -5 5.02 -5 4 C-4.360625 3.896875 -3.72125 3.79375 -3.0625 3.6875 C-2.381875 3.460625 -1.70125 3.23375 -1 3 C-0.67 2.01 -0.34 1.02 0 0 Z " fill="#F9CCCA" transform="translate(520,279)"/>
<path d="M0 0 C0.33 0 0.66 0 1 0 C1.05441656 1.89551022 1.09298035 3.7914792 1.125 5.6875 C1.14820313 6.74324219 1.17140625 7.79898438 1.1953125 8.88671875 C0.99858729 12.02251859 0.33057654 14.17645373 -1 17 C-1.33 17 -1.66 17 -2 17 C-1.38273804 11.32644329 -0.72054048 5.66138945 0 0 Z " fill="#E80A08" transform="translate(415,208)"/>
<path d="M0 0 C0.33 0 0.66 0 1 0 C1 1.98 1 3.96 1 6 C0.34 6 -0.32 6 -1 6 C-1 7.32 -1 8.64 -1 10 C-1.66 10 -2.32 10 -3 10 C-3.23226952 6.59338044 -3.35720302 4.59016151 -1.5625 1.625 C-0.7890625 0.820625 -0.7890625 0.820625 0 0 Z " fill="#C03134" transform="translate(509,207)"/>
<path d="M0 0 C0.99 0 1.98 0 3 0 C1.55746343 3.36591866 -0.33264727 5.51047079 -3 8 C-3.66 7.67 -4.32 7.34 -5 7 C-4.24172908 5.82512964 -3.46792245 4.66027408 -2.6875 3.5 C-2.25824219 2.8503125 -1.82898438 2.200625 -1.38671875 1.53125 C-0.70029297 0.77328125 -0.70029297 0.77328125 0 0 Z " fill="#EE0706" transform="translate(444,198)"/>
<path d="M0 0 C0.66 0 1.32 0 2 0 C1.67 1.32 1.34 2.64 1 4 C0.34 4 -0.32 4 -1 4 C-1 5.65 -1 7.3 -1 9 C-1.99 9 -2.98 9 -4 9 C-4 7.68 -4 6.36 -4 5 C-3.34 5 -2.68 5 -2 5 C-2 4.01 -2 3.02 -2 2 C-1.34 2 -0.68 2 0 2 C0 1.34 0 0.68 0 0 Z " fill="#C51D1F" transform="translate(448,189)"/>
<path d="M0 0 C1.32 0.33 2.64 0.66 4 1 C2.66667905 4.99996286 0.5042173 5.83782337 -3 8 C-3.33 7.01 -3.66 6.02 -4 5 C-3.34 4.54625 -2.68 4.0925 -2 3.625 C-1.34 3.08875 -0.68 2.5525 0 2 C0 1.34 0 0.68 0 0 Z " fill="#F6DFDE" transform="translate(451,180)"/>
<path d="M0 0 C0.33 0.99 0.66 1.98 1 3 C3.64 3 6.28 3 9 3 C9 2.34 9 1.68 9 1 C10.32 0.67 11.64 0.34 13 0 C12.34 1.32 11.68 2.64 11 4 C7.37 4 3.74 4 0 4 C0 2.68 0 1.36 0 0 Z " fill="#BF2624" transform="translate(393,138)"/>
<path d="M0 0 C0.33 0 0.66 0 1 0 C1.3690205 11.52164009 1.3690205 11.52164009 -1 17 C-1.33 17 -1.66 17 -2 17 C-2 14.36 -2 11.72 -2 9 C-1.34 9 -0.68 9 0 9 C0 6.03 0 3.06 0 0 Z " fill="#F2CAC4" transform="translate(430,127)"/>
<path d="M0 0 C1.32 0 2.64 0 4 0 C4 0.66 4 1.32 4 2 C3.01 2.495 3.01 2.495 2 3 C1.71125 3.825 1.4225 4.65 1.125 5.5 C0 8 0 8 -2.125 8.8125 C-2.74375 8.874375 -3.3625 8.93625 -4 9 C-4 8.34 -4 7.68 -4 7 C-3.01 7 -2.02 7 -1 7 C-1.020625 6.030625 -1.04125 5.06125 -1.0625 4.0625 C-1 1 -1 1 0 0 Z " fill="#FAEDEA" transform="translate(406,130)"/>
<path d="M0 0 C0.99 0.33 1.98 0.66 3 1 C2.67 1.99 2.34 2.98 2 4 C-0.5625 5.1875 -0.5625 5.1875 -3 6 C-2.625 3.5625 -2.625 3.5625 -2 1 C-1.34 0.67 -0.68 0.34 0 0 Z M-5 6 C-4.01 6.495 -4.01 6.495 -3 7 C-3.99 7.495 -3.99 7.495 -5 8 C-5 7.34 -5 6.68 -5 6 Z " fill="#ED0706" transform="translate(452,187)"/>
<path d="M0 0 C1.32 0 2.64 0 4 0 C3 2 2 4 1 6 C-0.32 5.67 -1.64 5.34 -3 5 C-1.75 2.5 -1.75 2.5 0 0 Z " fill="#C81F23" transform="translate(476,320)"/>
<path d="M0 0 C0.66 0.33 1.32 0.66 2 1 C1.34 2.98 0.68 4.96 0 7 C-0.66 7 -1.32 7 -2 7 C-2.33 7.66 -2.66 8.32 -3 9 C-2.25 2.25 -2.25 2.25 0 0 Z " fill="#FBF1E9" transform="translate(351,118)"/>
<path d="M0 0 C0.66 0 1.32 0 2 0 C1.71872579 1.48117801 1.42466268 2.95993249 1.125 4.4375 C0.96257812 5.26121094 0.80015625 6.08492188 0.6328125 6.93359375 C0.31957031 7.95646484 0.31957031 7.95646484 0 9 C-0.99 9.495 -0.99 9.495 -2 10 C-1.125 2.25 -1.125 2.25 0 0 Z " fill="#FAD6D4" transform="translate(355,107)"/>
<path d="M0 0 C3.3 0 6.6 0 10 0 C10 0.33 10 0.66 10 1 C8.35 1 6.7 1 5 1 C4.67 1.99 4.34 2.98 4 4 C2.68 3.34 1.36 2.68 0 2 C0 1.34 0 0.68 0 0 Z " fill="#FAE9E4" transform="translate(331,382)"/>
<path d="M0 0 C0.99 0.495 0.99 0.495 2 1 C1.67 1.66 1.34 2.32 1 3 C2.98 3.495 2.98 3.495 5 4 C5.33 5.65 5.66 7.3 6 9 C5.67 8.34 5.34 7.68 5 7 C2.97536745 6.34786708 2.97536745 6.34786708 1 6 C0.67 4.02 0.34 2.04 0 0 Z " fill="#E50910" transform="translate(226,278)"/>
<path d="M0 0 C0.66 0.33 1.32 0.66 2 1 C-1.75 4 -1.75 4 -4 4 C-4.33 4.99 -4.66 5.98 -5 7 C-5.99 7 -6.98 7 -8 7 C-8 6.34 -8 5.68 -8 5 C-6.3203125 3.67578125 -6.3203125 3.67578125 -4.125 2.3125 C-3.40570313 1.85488281 -2.68640625 1.39726562 -1.9453125 0.92578125 C-1.30335938 0.62027344 -0.66140625 0.31476563 0 0 Z " fill="#EB070B" transform="translate(237,271)"/>
<path d="M0 0 C2 3 2 3 2 5 C1.34 5 0.68 5 0 5 C-0.66 6.32 -1.32 7.64 -2 9 C-2.6875 7.3125 -2.6875 7.3125 -3 5 C-1.5625 2.25 -1.5625 2.25 0 0 Z " fill="#E7080D" transform="translate(349,133)"/>
<path d="M0 0 C0.99 0.66 1.98 1.32 3 2 C2.67 2.66 2.34 3.32 2 4 C1.34 4 0.68 4 0 4 C0 4.66 0 5.32 0 6 C-1.32 6.33 -2.64 6.66 -4 7 C-4.33 6.34 -4.66 5.68 -5 5 C-3.35 4.34 -1.7 3.68 0 3 C0 2.01 0 1.02 0 0 Z " fill="#DF0A0E" transform="translate(450,346)"/>
<path d="M0 0 C0.99 0 1.98 0 3 0 C3 0.99 3 1.98 3 3 C-1.34285714 7 -1.34285714 7 -4 7 C-4 6.34 -4 5.68 -4 5 C-3.01 4.34 -2.02 3.68 -1 3 C-0.67 2.01 -0.34 1.02 0 0 Z " fill="#B02F30" transform="translate(519,276)"/>
<path d="M0 0 C2.475 0.495 2.475 0.495 5 1 C5 1.66 5 2.32 5 3 C5.99 3.33 6.98 3.66 8 4 C7.67 4.99 7.34 5.98 7 7 C6.5875 6.54625 6.175 6.0925 5.75 5.625 C3.93591905 3.94049626 2.24714373 3.00734029 0 2 C0 1.34 0 0.68 0 0 Z " fill="#D50E11" transform="translate(511,272)"/>
<path d="M0 0 C0.33 1.32 0.66 2.64 1 4 C1.66 4 2.32 4 3 4 C3.33 6.64 3.66 9.28 4 12 C2 8.25 2 8.25 2 6 C1.01 6 0.02 6 -1 6 C-0.67 4.02 -0.34 2.04 0 0 Z " fill="#F5CEC7" transform="translate(227,207)"/>
<path d="M0 0 C0 0.99 0 1.98 0 3 C-2.25 4.75 -2.25 4.75 -5 6 C-6.32 5.67 -7.64 5.34 -9 5 C-6.03 3.35 -3.06 1.7 0 0 Z " fill="#C03A3B" transform="translate(417,129)"/>
<path d="M0 0 C0.33 0 0.66 0 1 0 C1 1.65 1 3.3 1 5 C0.34 5 -0.32 5 -1 5 C-1 7.31 -1 9.62 -1 12 C-1.33 12 -1.66 12 -2 12 C-2 8.7 -2 5.4 -2 2 C-1.34 2 -0.68 2 0 2 C0 1.34 0 0.68 0 0 Z " fill="#EFBDBA" transform="translate(294,375)"/>
<path d="M0 0 C0.66 0 1.32 0 2 0 C1.67 1.32 1.34 2.64 1 4 C0.01 4 -0.98 4 -2 4 C-2.33 4.99 -2.66 5.98 -3 7 C-3.66 6.67 -4.32 6.34 -5 6 C-4.34 5.01 -3.68 4.02 -3 3 C-2.34 3 -1.68 3 -1 3 C-0.67 2.01 -0.34 1.02 0 0 Z " fill="#FCDFDD" transform="translate(495,305)"/>
<path d="M0 0 C2.10633718 1.70828921 2.93801608 2.52148416 3.29296875 5.26171875 C3.25816406 6.06222656 3.22335938 6.86273438 3.1875 7.6875 C3.16042969 8.49574219 3.13335937 9.30398438 3.10546875 10.13671875 C3.07066406 10.75160156 3.03585938 11.36648438 3 12 C2.67 12 2.34 12 2 12 C0.86235649 7.73383684 0 4.43513689 0 0 Z " fill="#B4292B" transform="translate(241,247)"/>
<path d="M0 0 C2 2 2 2 2.125 5.125 C2.08375 6.07375 2.0425 7.0225 2 8 C1.34 8 0.68 8 0 8 C-0.33 8.66 -0.66 9.32 -1 10 C-0.67 6.7 -0.34 3.4 0 0 Z " fill="#F6EBE6" transform="translate(225,201)"/>
<path d="M0 0 C1.32 0.66 2.64 1.32 4 2 C3.67 2.99 3.34 3.98 3 5 C1.35 5 -0.3 5 -2 5 C-1.34 3.35 -0.68 1.7 0 0 Z " fill="#FAEBE5" transform="translate(484,202)"/>
<path d="M0 0 C2.99332739 0.9977758 3.94766315 1.7522025 6 4 C5.67 4.66 5.34 5.32 5 6 C4.38125 5.67 3.7625 5.34 3.125 5 C1.08981656 3.85806765 1.08981656 3.85806765 -1 4 C-0.67 2.68 -0.34 1.36 0 0 Z " fill="#EF0608" transform="translate(289,185)"/>
<path d="M0 0 C0.99 0 1.98 0 3 0 C3 1.98 3 3.96 3 6 C2.01 6 1.02 6 0 6 C0 4.02 0 2.04 0 0 Z " fill="#F2FCF7" transform="translate(362,80)"/>
<path d="M0 0 C0.66 0 1.32 0 2 0 C2.33 1.32 2.66 2.64 3 4 C2.01 4 1.02 4 0 4 C-0.33 5.32 -0.66 6.64 -1 8 C-1.66 7.67 -2.32 7.34 -3 7 C-2.01 4.69 -1.02 2.38 0 0 Z " fill="#B03A3B" transform="translate(369,78)"/>
<path d="M0 0 C0.66 0 1.32 0 2 0 C1.67 0.99 1.34 1.98 1 3 C0.34 2.67 -0.32 2.34 -1 2 C-0.67 1.34 -0.34 0.68 0 0 Z M-4 3 C-2.68 3.33 -1.36 3.66 0 4 C0 4.66 0 5.32 0 6 C-1.32 6 -2.64 6 -4 6 C-4 5.01 -4 4.02 -4 3 Z " fill="#F9E8E4" transform="translate(460,342)"/>
<path d="M0 0 C0.33 1.32 0.66 2.64 1 4 C-0.32 4.99 -1.64 5.98 -3 7 C-3.66 6.67 -4.32 6.34 -5 6 C-4.67 5.34 -4.34 4.68 -4 4 C-3.34 4 -2.68 4 -2 4 C-1.34 2.68 -0.68 1.36 0 0 Z " fill="#F3FBFA" transform="translate(505,298)"/>
<path d="M0 0 C0.66 0.33 1.32 0.66 2 1 C0.6875 3.5 0.6875 3.5 -1 6 C-1.99 6 -2.98 6 -4 6 C-2.25 1.125 -2.25 1.125 0 0 Z " fill="#FBF4F3" transform="translate(524,275)"/>
<path d="M0 0 C2.4375 0.8125 2.4375 0.8125 5 2 C5.33 2.99 5.66 3.98 6 5 C4.68 5 3.36 5 2 5 C1.34 3.35 0.68 1.7 0 0 Z " fill="#FCDCD5" transform="translate(501,263)"/>
<path d="M0 0 C0.99 0 1.98 0 3 0 C3.33 2.97 3.66 5.94 4 9 C2 6 2 6 2 3 C1.34 3 0.68 3 0 3 C0 2.01 0 1.02 0 0 Z " fill="#F2C0BB" transform="translate(456,187)"/>
<path d="M0 0 C2 4 2 4 2 7 C2.66 7 3.32 7 4 7 C4 7.99 4 8.98 4 10 C3.01 9.67 2.02 9.34 1 9 C0.67 6.03 0.34 3.06 0 0 Z " fill="#C74148" transform="translate(376,92)"/>
</svg>
